<svg width="131" height="54" viewBox="0 0 131 54" fill="none" xmlns="http://www.w3.org/2000/svg">
<path d="M18.5 24L12.5 30L6.5 24" stroke="#00BFFF" stroke-width="2"/>
<path d="M39.18 34.14C38.8467 34.14 38.5867 34.0467 38.4 33.86C38.2267 33.6733 38.14 33.4133 38.14 33.08V20.82C38.14 20.4733 38.2267 20.2133 38.4 20.04C38.5867 19.8533 38.8467 19.76 39.18 19.76C39.5133 19.76 39.7667 19.8533 39.94 20.04C40.1267 20.2133 40.22 20.4733 40.22 20.82V25.98H48.12V20.82C48.12 20.4733 48.2067 20.2133 48.38 20.04C48.5667 19.8533 48.8267 19.76 49.16 19.76C49.4933 19.76 49.7467 19.8533 49.92 20.04C50.0933 20.2133 50.18 20.4733 50.18 20.82V33.08C50.18 33.4133 50.0933 33.6733 49.92 33.86C49.7467 34.0467 49.4933 34.14 49.16 34.14C48.8267 34.14 48.5667 34.0467 48.38 33.86C48.2067 33.6733 48.12 33.4133 48.12 33.08V27.72H40.22V33.08C40.22 33.4133 40.1333 33.6733 39.96 33.86C39.7867 34.0467 39.5267 34.14 39.18 34.14ZM57.492 34.18C56.5054 34.18 55.652 33.9733 54.932 33.56C54.2254 33.1467 53.672 32.56 53.272 31.8C52.872 31.04 52.672 30.1467 52.672 29.12C52.672 28.3333 52.7854 27.6333 53.012 27.02C53.2387 26.4067 53.5587 25.88 53.972 25.44C54.3987 24.9867 54.9054 24.6467 55.492 24.42C56.092 24.18 56.7587 24.06 57.492 24.06C58.4654 24.06 59.3054 24.2667 60.012 24.68C60.732 25.0933 61.292 25.68 61.692 26.44C62.092 27.1867 62.292 28.08 62.292 29.12C62.292 29.8933 62.1787 30.5933 61.952 31.22C61.7254 31.8467 61.3987 32.38 60.972 32.82C60.5587 33.26 60.052 33.6 59.452 33.84C58.8654 34.0667 58.212 34.18 57.492 34.18ZM57.492 32.62C58.0387 32.62 58.5187 32.4867 58.932 32.22C59.3454 31.9533 59.6654 31.56 59.892 31.04C60.132 30.52 60.252 29.88 60.252 29.12C60.252 27.9733 59.9987 27.1067 59.492 26.52C58.9854 25.9333 58.3187 25.64 57.492 25.64C56.932 25.64 56.4454 25.7733 56.032 26.04C55.6187 26.2933 55.292 26.68 55.052 27.2C54.8254 27.72 54.712 28.36 54.712 29.12C54.712 30.2533 54.9654 31.12 55.472 31.72C55.9787 32.32 56.652 32.62 57.492 32.62ZM68.623 34.18C67.823 34.18 67.1496 34.04 66.603 33.76C66.0563 33.48 65.6496 33.0667 65.383 32.52C65.1163 31.9733 64.983 31.3067 64.983 30.52V25.8H63.783C63.5163 25.8 63.3096 25.7333 63.163 25.6C63.0163 25.4533 62.943 25.26 62.943 25.02C62.943 24.7667 63.0163 24.5733 63.163 24.44C63.3096 24.3067 63.5163 24.24 63.783 24.24H64.983V22.18C64.983 21.8467 65.0696 21.5933 65.243 21.42C65.4296 21.2467 65.683 21.16 66.003 21.16C66.323 21.16 66.5696 21.2467 66.743 21.42C66.9163 21.5933 67.003 21.8467 67.003 22.18V24.24H69.343C69.6096 24.24 69.8163 24.3067 69.963 24.44C70.1096 24.5733 70.183 24.7667 70.183 25.02C70.183 25.26 70.1096 25.4533 69.963 25.6C69.8163 25.7333 69.6096 25.8 69.343 25.8H67.003V30.36C67.003 31.0667 67.1496 31.6 67.443 31.96C67.7496 32.32 68.243 32.5 68.923 32.5C69.163 32.5 69.3696 32.48 69.543 32.44C69.7296 32.3867 69.883 32.3533 70.003 32.34C70.1496 32.34 70.2696 32.3933 70.363 32.5C70.4563 32.5933 70.503 32.78 70.503 33.06C70.503 33.26 70.463 33.4467 70.383 33.62C70.3163 33.7933 70.1896 33.9067 70.003 33.96C69.843 34.0133 69.623 34.06 69.343 34.1C69.0763 34.1533 68.8363 34.18 68.623 34.18ZM81.7411 34.14C81.4078 34.14 81.1478 34.0467 80.9611 33.86C80.7878 33.6733 80.7011 33.4133 80.7011 33.08V21.64H76.4611C76.1811 21.64 75.9611 21.5667 75.8011 21.42C75.6411 21.26 75.5611 21.04 75.5611 20.76C75.5611 20.48 75.6411 20.2667 75.8011 20.12C75.9611 19.9733 76.1811 19.9 76.4611 19.9H87.0011C87.2944 19.9 87.5211 19.9733 87.6811 20.12C87.8411 20.2667 87.9211 20.48 87.9211 20.76C87.9211 21.04 87.8411 21.26 87.6811 21.42C87.5211 21.5667 87.2944 21.64 87.0011 21.64H82.7611V33.08C82.7611 33.4133 82.6744 33.6733 82.5011 33.86C82.3411 34.0467 82.0878 34.14 81.7411 34.14ZM91.9647 34.18C90.978 34.18 90.1247 33.9733 89.4047 33.56C88.698 33.1467 88.1447 32.56 87.7447 31.8C87.3447 31.04 87.1447 30.1467 87.1447 29.12C87.1447 28.3333 87.258 27.6333 87.4847 27.02C87.7114 26.4067 88.0314 25.88 88.4447 25.44C88.8714 24.9867 89.378 24.6467 89.9647 24.42C90.5647 24.18 91.2314 24.06 91.9647 24.06C92.938 24.06 93.778 24.2667 94.4847 24.68C95.2047 25.0933 95.7647 25.68 96.1647 26.44C96.5647 27.1867 96.7647 28.08 96.7647 29.12C96.7647 29.8933 96.6514 30.5933 96.4247 31.22C96.198 31.8467 95.8714 32.38 95.4447 32.82C95.0314 33.26 94.5247 33.6 93.9247 33.84C93.338 34.0667 92.6847 34.18 91.9647 34.18ZM91.9647 32.62C92.5114 32.62 92.9914 32.4867 93.4047 32.22C93.818 31.9533 94.138 31.56 94.3647 31.04C94.6047 30.52 94.7247 29.88 94.7247 29.12C94.7247 27.9733 94.4714 27.1067 93.9647 26.52C93.458 25.9333 92.7914 25.64 91.9647 25.64C91.4047 25.64 90.918 25.7733 90.5047 26.04C90.0914 26.2933 89.7647 26.68 89.5247 27.2C89.298 27.72 89.1847 28.36 89.1847 29.12C89.1847 30.2533 89.438 31.12 89.9447 31.72C90.4514 32.32 91.1247 32.62 91.9647 32.62ZM102.753 34.18C101.9 34.18 101.147 33.98 100.493 33.58C99.8533 33.1667 99.3533 32.58 98.9933 31.82C98.6333 31.0467 98.4533 30.1467 98.4533 29.12C98.4533 28.0667 98.6333 27.1667 98.9933 26.42C99.3533 25.6733 99.8533 25.0933 100.493 24.68C101.147 24.2667 101.9 24.06 102.753 24.06C103.607 24.06 104.34 24.2733 104.953 24.7C105.58 25.1133 106 25.6733 106.213 26.38H105.993V20.78C105.993 20.4467 106.08 20.1933 106.253 20.02C106.427 19.8467 106.673 19.76 106.993 19.76C107.313 19.76 107.56 19.8467 107.733 20.02C107.92 20.1933 108.013 20.4467 108.013 20.78V33.12C108.013 33.44 107.927 33.6933 107.753 33.88C107.58 34.0533 107.333 34.14 107.013 34.14C106.693 34.14 106.447 34.0533 106.273 33.88C106.1 33.6933 106.013 33.44 106.013 33.12V31.36L106.233 31.8C106.02 32.52 105.6 33.1 104.973 33.54C104.36 33.9667 103.62 34.18 102.753 34.18ZM103.273 32.62C103.82 32.62 104.3 32.4867 104.713 32.22C105.127 31.9533 105.447 31.56 105.673 31.04C105.913 30.52 106.033 29.88 106.033 29.12C106.033 27.9733 105.78 27.1067 105.273 26.52C104.767 25.9333 104.1 25.64 103.273 25.64C102.713 25.64 102.227 25.7733 101.813 26.04C101.4 26.2933 101.073 26.68 100.833 27.2C100.607 27.72 100.493 28.36 100.493 29.12C100.493 30.2533 100.747 31.12 101.253 31.72C101.76 32.32 102.433 32.62 103.273 32.62ZM113.97 34.18C113.29 34.18 112.676 34.0467 112.13 33.78C111.596 33.5133 111.176 33.1533 110.87 32.7C110.563 32.2467 110.41 31.7333 110.41 31.16C110.41 30.44 110.59 29.8733 110.95 29.46C111.323 29.0333 111.93 28.7333 112.77 28.56C113.623 28.3733 114.77 28.28 116.21 28.28H117.15V29.52H116.23C115.27 29.52 114.51 29.5667 113.95 29.66C113.39 29.7533 112.99 29.9133 112.75 30.14C112.523 30.3533 112.41 30.6533 112.41 31.04C112.41 31.5467 112.583 31.96 112.93 32.28C113.276 32.5867 113.756 32.74 114.37 32.74C114.863 32.74 115.296 32.6267 115.67 32.4C116.043 32.16 116.336 31.84 116.55 31.44C116.776 31.04 116.89 30.58 116.89 30.06V27.76C116.89 27 116.73 26.4533 116.41 26.12C116.09 25.7867 115.563 25.62 114.83 25.62C114.403 25.62 113.956 25.6733 113.49 25.78C113.036 25.8867 112.563 26.0667 112.07 26.32C111.843 26.4267 111.65 26.46 111.49 26.42C111.33 26.38 111.203 26.2933 111.11 26.16C111.016 26.0133 110.963 25.86 110.95 25.7C110.95 25.5267 110.99 25.36 111.07 25.2C111.163 25.04 111.316 24.92 111.53 24.84C112.116 24.56 112.696 24.36 113.27 24.24C113.843 24.12 114.383 24.06 114.89 24.06C115.783 24.06 116.516 24.2 117.09 24.48C117.676 24.76 118.11 25.1867 118.39 25.76C118.67 26.3333 118.81 27.0733 118.81 27.98V33.12C118.81 33.44 118.73 33.6933 118.57 33.88C118.41 34.0533 118.176 34.14 117.87 34.14C117.576 34.14 117.343 34.0533 117.17 33.88C116.996 33.6933 116.91 33.44 116.91 33.12V31.82H117.09C116.983 32.3133 116.783 32.74 116.49 33.1C116.21 33.4467 115.856 33.7133 115.43 33.9C115.003 34.0867 114.516 34.18 113.97 34.18ZM123.794 37.74C123.554 37.74 123.354 37.6733 123.194 37.54C123.048 37.42 122.961 37.2533 122.934 37.04C122.921 36.84 122.961 36.62 123.054 36.38L124.414 33.32V34.18L120.674 25.48C120.581 25.24 120.548 25.0133 120.574 24.8C120.601 24.5867 120.701 24.42 120.874 24.3C121.048 24.1667 121.281 24.1 121.574 24.1C121.828 24.1 122.028 24.16 122.174 24.28C122.321 24.4 122.454 24.6067 122.574 24.9L125.594 32.36H125.034L128.094 24.9C128.214 24.5933 128.354 24.3867 128.514 24.28C128.674 24.16 128.894 24.1 129.174 24.1C129.414 24.1 129.601 24.1667 129.734 24.3C129.881 24.42 129.968 24.5867 129.994 24.8C130.034 25 130.001 25.22 129.894 25.46L124.894 36.96C124.761 37.2667 124.608 37.4733 124.434 37.58C124.274 37.6867 124.061 37.74 123.794 37.74Z" fill="#00BFFF"/>
</svg>
