<svg width="24" height="25" viewBox="0 0 24 25" fill="none">
<path d="M6.44784 8.46942C6.76219 5.64032 9.15349 3.5 12 3.5V3.5C14.8465 3.5 17.2378 5.64032 17.5522 8.46942L17.804 10.7356C17.8072 10.7645 17.8088 10.779 17.8104 10.7933C17.9394 11.9169 18.3051 13.0005 18.8836 13.9725C18.8909 13.9849 18.8984 13.9973 18.9133 14.0222L19.4914 14.9856C20.0159 15.8599 20.2782 16.297 20.2216 16.6559C20.1839 16.8946 20.061 17.1117 19.8757 17.2668C19.5971 17.5 19.0873 17.5 18.0678 17.5H5.93223C4.91268 17.5 4.40291 17.5 4.12434 17.2668C3.93897 17.1117 3.81609 16.8946 3.77841 16.6559C3.72179 16.297 3.98407 15.8599 4.50862 14.9856L5.08665 14.0222C5.10161 13.9973 5.10909 13.9849 5.11644 13.9725C5.69488 13.0005 6.06064 11.9169 6.18959 10.7933C6.19123 10.779 6.19283 10.7645 6.19604 10.7356L6.44784 8.46942Z" stroke="#333333" stroke-width="2"/>
<path d="M9.10222 18.1647C9.27315 19.1215 9.64978 19.967 10.1737 20.5701C10.6976 21.1731 11.3396 21.5 12 21.5C12.6604 21.5 13.3024 21.1731 13.8263 20.5701C14.3502 19.967 14.7269 19.1215 14.8978 18.1647" stroke="#333333" stroke-width="2" stroke-linecap="round"/>
</svg>
