<svg width="127" height="42" viewBox="0 0 127 42" fill="none" xmlns="http://www.w3.org/2000/svg">
<g clip-path="url(#clip0_16_9675)">
<path d="M0.0397949 32.4325C0.277038 24.2118 3.54409 16.3689 9.21308 10.4109C9.40261 10.2125 9.59214 10.016 9.78167 9.82146C9.99205 9.61109 10.2062 9.4045 10.4204 9.1998C11.2983 8.36585 12.2208 7.58004 13.1837 6.84583C18.9868 2.42035 26.086 0.0297359 33.3839 0.0435778H33.4503V9.17137V9.23392C28.5735 9.2285 23.8093 10.7 19.7851 13.4548C17.2286 15.2035 15.0288 17.4233 13.3032 19.9955C10.6268 23.9876 9.20264 28.6876 9.21308 33.4938H0.0416902L0.0397949 32.4325Z" fill="#4666FF"/>
<path d="M14.1882 20.8711C15.8887 18.2786 18.0931 16.0543 20.6702 14.3304L33.4199 27.065L33.3157 27.1693H33.4825V33.4977H27.2279C27.2279 33.4674 27.2279 33.4351 27.2279 33.4048C27.2279 33.3745 27.2279 33.3006 27.2279 33.2475L26.9797 33.4977H26.8167L14.1882 20.8711Z" fill="#4666FF"/>
<path d="M0 0.0454877V0H6.32274L9.21309 2.88655L12.3441 6.01381C11.2478 6.85255 10.2023 7.75568 9.21309 8.71841L8.94585 8.97997L8.71841 9.20172C7.6873 10.2495 6.72381 11.3618 5.83375 12.5318L2.51318 9.2093L0 6.70749V6.20903V0.0454877Z" fill="#4666FF"/>
<path d="M42.3165 42C41.5887 42 41.0277 41.8029 40.6334 41.4087C40.2392 41.0145 40.0421 40.4383 40.0421 39.6802V13.2899C40.0421 12.5318 40.2392 11.9556 40.6334 11.5614C41.0277 11.1672 41.5716 10.9726 42.2653 10.9776C42.9931 10.9776 43.5541 11.1747 43.9483 11.569C44.3426 11.9632 44.5397 12.5368 44.5397 13.2899V17.2473L44.0393 16.2997C44.5027 14.6922 45.5172 13.2992 46.905 12.365C48.3303 11.3794 50.0133 10.8867 51.9541 10.8867C53.9252 10.8867 55.6462 11.3567 57.1169 12.2968C58.6094 13.2622 59.7935 14.6357 60.5285 16.2542C61.3321 17.9524 61.7339 19.9993 61.7339 22.395C61.7339 24.73 61.3321 26.7693 60.5285 28.513C59.7249 30.2567 58.5953 31.591 57.1397 32.5159C55.6841 33.4408 53.9556 33.9033 51.9541 33.9033C50.0436 33.9033 48.3758 33.4181 46.9505 32.4477C45.5691 31.5373 44.554 30.1677 44.0848 28.5812H44.6307V39.6802C44.6307 40.4383 44.426 41.0145 44.0166 41.4087C43.6072 41.8029 43.0405 42 42.3165 42ZM50.8226 30.3477C51.9947 30.376 53.1492 30.0596 54.1432 29.4379C55.1239 28.7827 55.8846 27.8476 56.3266 26.7542C56.8421 25.5715 57.0999 24.1184 57.0999 22.395C57.0999 19.787 56.5313 17.8159 55.3941 16.4816C54.2569 15.1473 52.7331 14.4802 50.8226 14.4802C49.6615 14.4578 48.518 14.7653 47.5248 15.3672C46.5323 16.0017 45.7614 16.9289 45.3186 18.0206C44.7993 19.2083 44.5397 20.6639 44.5397 22.3874C44.5397 24.965 45.1158 26.9361 46.2682 28.3007C47.4205 29.6654 48.9387 30.3477 50.8226 30.3477Z" fill="#4666FF"/>
<path d="M77.3418 33.9033C74.9158 33.9033 72.831 33.4408 71.0873 32.5159C69.3776 31.6242 67.9693 30.2475 67.0389 28.5585C66.0837 26.8451 65.6061 24.8058 65.6061 22.4405C65.6061 20.1358 66.0761 18.1192 67.0162 16.3906C67.9093 14.7115 69.2477 13.3108 70.8845 12.3423C72.3586 11.525 73.9929 11.0386 75.6739 10.9169C77.355 10.7951 79.0424 11.0409 80.6188 11.6372C81.8086 12.1211 82.8737 12.8675 83.7347 13.8206C84.6281 14.8272 85.2951 16.0139 85.6906 17.3004C86.1485 18.7881 86.371 20.3382 86.3502 21.8946C86.3502 22.4101 86.1986 22.7968 85.8953 23.0545C85.5921 23.3123 85.1372 23.4386 84.5307 23.4336H69.2451V20.621H83.2552L82.4819 21.2502C82.4819 19.734 82.262 18.4451 81.8223 17.3838C81.4373 16.39 80.7541 15.5399 79.8664 14.9502C79.0021 14.3892 77.9332 14.1087 76.6595 14.1087C75.2342 14.1087 74.0288 14.4423 73.0433 15.1094C72.0405 15.7975 71.2585 16.7612 70.7916 17.8841C70.2512 19.1958 69.988 20.6051 70.0184 22.0235V22.2964C70.0184 24.965 70.6501 26.974 71.9137 28.3235C73.1772 29.6729 75.0017 30.3477 77.3873 30.3477C78.361 30.3397 79.3305 30.2176 80.2758 29.9838C81.3001 29.7376 82.2762 29.3225 83.1642 28.7556C83.5746 28.4819 84.0583 28.3392 84.5516 28.3462C84.915 28.3571 85.2628 28.4963 85.5334 28.7391C85.804 28.982 85.9799 29.3128 86.0299 29.6729C86.0855 30.0551 86.0192 30.4451 85.8404 30.7874C85.6222 31.2075 85.2948 31.561 84.8927 31.8109C83.7976 32.5368 82.585 33.0678 81.3087 33.3802C80.0136 33.7202 78.6808 33.896 77.3418 33.9033Z" fill="#4666FF"/>
<path d="M93.6718 33.8123C92.9137 33.8123 92.3375 33.6076 91.9433 33.1982C91.5471 32.7888 91.3519 32.2202 91.3519 31.4924V13.2899C91.3519 12.5318 91.5415 11.9632 91.9433 11.5614C92.3451 11.1596 92.8814 10.9701 93.5808 10.9701C94.2802 10.9701 94.8601 11.1596 95.2411 11.5614C95.6221 11.9632 95.8097 12.5318 95.8097 13.2899V16.6105H95.3548C95.8388 14.791 96.7333 13.4112 98.0386 12.4711C99.3438 11.5311 101.012 10.9852 103.042 10.8336C103.275 10.8065 103.511 10.829 103.734 10.8995C103.958 10.9701 104.164 11.0871 104.339 11.243C104.657 11.5462 104.829 12.0163 104.862 12.6531C104.894 13.2899 104.784 13.7903 104.452 14.1693C104.121 14.5484 103.601 14.7683 102.906 14.8289L102.041 14.9199C100.069 15.1018 98.568 15.7235 97.5382 16.7849C96.5084 17.8462 95.9929 19.2993 95.9916 21.1441V31.4849C95.9916 32.2127 95.8021 32.7812 95.4231 33.1906C95.044 33.6 94.4583 33.8123 93.6718 33.8123Z" fill="#4666FF"/>
<path d="M115.413 33.9033C113.971 33.9282 112.543 33.6167 111.243 32.9935C110.08 32.4412 109.083 31.5912 108.355 30.5296C107.656 29.4963 107.291 28.274 107.308 27.0271C107.308 25.3845 107.725 24.0881 108.559 23.1379C109.393 22.1877 110.773 21.5054 112.699 21.091C114.629 20.6917 117.232 20.4921 120.507 20.4921H122.645V23.3123H120.56C118.377 23.3123 116.649 23.4184 115.375 23.6307C114.101 23.843 113.199 24.1993 112.668 24.6997C112.138 25.2051 111.872 25.895 111.872 26.7693C111.872 27.9217 112.267 28.8542 113.055 29.5668C113.843 30.2794 114.935 30.6358 116.33 30.6358C117.371 30.6577 118.397 30.3815 119.287 29.8397C120.134 29.3037 120.828 28.5565 121.3 27.6715C121.816 26.7072 122.077 25.6266 122.058 24.5329V19.3018C122.058 17.5682 121.693 16.3224 120.962 15.5643C120.232 14.8062 119.032 14.4271 117.361 14.4271C116.34 14.4323 115.322 14.5544 114.329 14.791C113.198 15.0652 112.106 15.4777 111.076 16.0191C110.561 16.2617 110.119 16.3376 109.75 16.2466C109.393 16.1608 109.084 15.9409 108.885 15.6325C108.676 15.3226 108.558 14.9601 108.544 14.5863C108.54 14.1973 108.642 13.8145 108.84 13.4794C109.068 13.0896 109.433 12.7979 109.863 12.6607C111.123 12.0494 112.452 11.5912 113.821 11.296C115.033 11.033 116.269 10.8958 117.509 10.8867C119.541 10.8867 121.216 11.2025 122.535 11.8343C123.821 12.4388 124.858 13.4703 125.469 14.7531C126.101 16.0571 126.417 17.7401 126.417 19.8022V31.4849C126.417 32.2127 126.235 32.7812 125.871 33.1906C125.507 33.6 124.976 33.8047 124.279 33.8047C123.985 33.819 123.692 33.7718 123.418 33.666C123.144 33.5602 122.895 33.3983 122.687 33.1906C122.293 32.7812 122.096 32.2127 122.096 31.4849V28.5282H122.505C122.293 29.5839 121.833 30.574 121.163 31.4166C120.513 32.2187 119.678 32.8509 118.73 33.2589C117.681 33.7013 116.551 33.9207 115.413 33.9033Z" fill="#4666FF"/>
</g>
<defs>
<clipPath id="clip0_16_9675">
<rect width="126.421" height="42" fill="white"/>
</clipPath>
</defs>
</svg>
