<svg width="40" height="40" viewBox="0 0 40 40" fill="none" xmlns="http://www.w3.org/2000/svg">
<g id="Layer 2">
<g id="Layer 1">
<path id="Vector" d="M33.74 10.279C46.3834 33.9252 16.8876 36.5613 0 40L15.7302 18.4325C15.8732 18.1002 16.1054 17.8065 16.4052 17.5786C16.705 17.3507 17.0626 17.1961 17.445 17.1291L22.8529 17.0314L19.9596 12.5168C19.7468 11.8568 19.8415 11.2983 20.1181 10.8765V10.8697C24.4793 4.33305 27.1386 -1.26923 35.1367 0.251917C37.0641 0.447186 39.5128 2.41453 40.0053 4.02941C37.9148 6.11228 35.8263 8.19548 33.74 10.279Z" fill="#00BFFF"/>
<path id="Vector_2" d="M15.1185 11.4623L9.43613 11.9729L12.5358 16.0404C13.4836 17.9589 11.2115 19.9536 9.25105 18.3963L3.88779 11.3666C3.11978 9.99973 3.99416 8.75782 5.21956 8.51959L5.28338 8.49909L14.4962 7.677C16.7822 7.86348 17.5587 10.6597 15.1185 11.4623Z" fill="#00BFFF"/>
</g>
</g>
</svg>
