<svg width="40" height="41" viewBox="0 0 40 41" fill="none" xmlns="http://www.w3.org/2000/svg">
<g clip-path="url(#clip0_163_2989)">
<path d="M33.74 10.779C46.3834 34.4252 16.8876 37.0613 0 40.5L15.7302 18.9325C15.8732 18.6002 16.1054 18.3065 16.4052 18.0786C16.705 17.8507 17.0626 17.6961 17.445 17.6291L22.8529 17.5314L19.9596 13.0168C19.7468 12.3568 19.8415 11.7983 20.1181 11.3765V11.3697C24.4793 4.83304 27.1386 -0.769249 35.1367 0.751902C37.0641 0.947171 39.5128 2.91451 40.0053 4.52939C37.9148 6.61227 35.8263 8.69547 33.74 10.779Z" fill="#00BFFF"/>
<path d="M15.1185 11.9623L9.43613 12.4729L12.5358 16.5404C13.4836 18.4589 11.2115 20.4536 9.25105 18.8963L3.88779 11.8666C3.11978 10.4997 3.99416 9.25782 5.21956 9.01959L5.28338 8.99909L14.4962 8.177C16.7822 8.36348 17.5587 11.1597 15.1185 11.9623Z" fill="#00BFFF"/>
</g>
<defs>
<clipPath id="clip0_163_2989">
<rect width="40" height="40" fill="white" transform="translate(0 0.5)"/>
</clipPath>
</defs>
</svg>
