<svg width="128" height="128" viewBox="0 0 128 128" fill="none" xmlns="http://www.w3.org/2000/svg">
<path fill-rule="evenodd" clip-rule="evenodd" d="M16 26.6667C16 23.8377 17.1238 21.1246 19.1242 19.1242C21.1246 17.1238 23.8377 16 26.6667 16C29.4956 16 32.2088 17.1238 34.2091 19.1242C36.2095 21.1246 37.3333 23.8377 37.3333 26.6667C37.3333 29.4956 36.2095 32.2088 34.2091 34.2091C32.2088 36.2095 29.4956 37.3333 26.6667 37.3333C23.8377 37.3333 21.1246 36.2095 19.1242 34.2091C17.1238 32.2088 16 29.4956 16 26.6667ZM53.3333 26.6667C53.3333 23.8377 54.4571 21.1246 56.4575 19.1242C58.4579 17.1238 61.171 16 64 16C66.829 16 69.5421 17.1238 71.5425 19.1242C73.5429 21.1246 74.6667 23.8377 74.6667 26.6667C74.6667 29.4956 73.5429 32.2088 71.5425 34.2091C69.5421 36.2095 66.829 37.3333 64 37.3333C61.171 37.3333 58.4579 36.2095 56.4575 34.2091C54.4571 32.2088 53.3333 29.4956 53.3333 26.6667ZM90.6667 26.6667C90.6667 23.8377 91.7905 21.1246 93.7909 19.1242C95.7913 17.1238 98.5044 16 101.333 16C104.162 16 106.875 17.1238 108.876 19.1242C110.876 21.1246 112 23.8377 112 26.6667C112 29.4956 110.876 32.2088 108.876 34.2091C106.875 36.2095 104.162 37.3333 101.333 37.3333C98.5044 37.3333 95.7913 36.2095 93.7909 34.2091C91.7905 32.2088 90.6667 29.4956 90.6667 26.6667ZM16 64C16 61.171 17.1238 58.4579 19.1242 56.4575C21.1246 54.4571 23.8377 53.3333 26.6667 53.3333C29.4956 53.3333 32.2088 54.4571 34.2091 56.4575C36.2095 58.4579 37.3333 61.171 37.3333 64C37.3333 66.829 36.2095 69.5421 34.2091 71.5425C32.2088 73.5429 29.4956 74.6667 26.6667 74.6667C23.8377 74.6667 21.1246 73.5429 19.1242 71.5425C17.1238 69.5421 16 66.829 16 64ZM53.3333 64C53.3333 61.171 54.4571 58.4579 56.4575 56.4575C58.4579 54.4571 61.171 53.3333 64 53.3333C66.829 53.3333 69.5421 54.4571 71.5425 56.4575C73.5429 58.4579 74.6667 61.171 74.6667 64C74.6667 66.829 73.5429 69.5421 71.5425 71.5425C69.5421 73.5429 66.829 74.6667 64 74.6667C61.171 74.6667 58.4579 73.5429 56.4575 71.5425C54.4571 69.5421 53.3333 66.829 53.3333 64ZM90.6667 64C90.6667 61.171 91.7905 58.4579 93.7909 56.4575C95.7913 54.4571 98.5044 53.3333 101.333 53.3333C104.162 53.3333 106.875 54.4571 108.876 56.4575C110.876 58.4579 112 61.171 112 64C112 66.829 110.876 69.5421 108.876 71.5425C106.875 73.5429 104.162 74.6667 101.333 74.6667C98.5044 74.6667 95.7913 73.5429 93.7909 71.5425C91.7905 69.5421 90.6667 66.829 90.6667 64ZM16 101.333C16 98.5044 17.1238 95.7913 19.1242 93.7909C21.1246 91.7905 23.8377 90.6667 26.6667 90.6667C29.4956 90.6667 32.2088 91.7905 34.2091 93.7909C36.2095 95.7913 37.3333 98.5044 37.3333 101.333C37.3333 104.162 36.2095 106.875 34.2091 108.876C32.2088 110.876 29.4956 112 26.6667 112C23.8377 112 21.1246 110.876 19.1242 108.876C17.1238 106.875 16 104.162 16 101.333ZM53.3333 101.333C53.3333 98.5044 54.4571 95.7913 56.4575 93.7909C58.4579 91.7905 61.171 90.6667 64 90.6667C66.829 90.6667 69.5421 91.7905 71.5425 93.7909C73.5429 95.7913 74.6667 98.5044 74.6667 101.333C74.6667 104.162 73.5429 106.875 71.5425 108.876C69.5421 110.876 66.829 112 64 112C61.171 112 58.4579 110.876 56.4575 108.876C54.4571 106.875 53.3333 104.162 53.3333 101.333ZM90.6667 101.333C90.6667 98.5044 91.7905 95.7913 93.7909 93.7909C95.7913 91.7905 98.5044 90.6667 101.333 90.6667C104.162 90.6667 106.875 91.7905 108.876 93.7909C110.876 95.7913 112 98.5044 112 101.333C112 104.162 110.876 106.875 108.876 108.876C106.875 110.876 104.162 112 101.333 112C98.5044 112 95.7913 110.876 93.7909 108.876C91.7905 106.875 90.6667 104.162 90.6667 101.333Z" fill="#F3F4F6" fill-opacity="0.5"/>
</svg>
