<svg width="1272" height="243" viewBox="0 0 1272 243" fill="none" xmlns="http://www.w3.org/2000/svg">
<rect width="1280" height="242.152" fill="white"/>
<path d="M483.216 64.6238C497.472 93.6854 464.203 96.9254 445.152 101.152C451.072 92.3182 456.987 83.4822 462.897 74.6438C463.059 74.2356 463.321 73.8747 463.659 73.5949C463.997 73.315 464.401 73.1251 464.832 73.043L470.933 72.923L467.669 67.3742C467.555 67.0445 467.512 66.6944 467.543 66.3469C467.574 65.9995 467.678 65.6625 467.849 65.3582C472.769 57.3254 475.769 50.4398 484.793 52.3094C486.967 52.5494 489.729 54.9662 490.284 56.951L483.216 64.6238Z" fill="#00AEEF"/>
<path d="M462.208 66.0782L455.798 66.7046C456.963 68.3734 458.128 70.0398 459.295 71.7038C460.363 74.063 457.8 76.5038 455.589 74.6006L449.536 65.9606C448.672 64.2806 449.656 62.7542 451.041 62.4614L451.113 62.435L461.505 61.4246C464.085 61.655 464.961 65.0918 462.208 66.0782Z" fill="#00AEEF"/>
<path d="M523.728 86.3102C523.477 86.3268 523.226 86.2905 522.99 86.2037C522.755 86.1169 522.54 85.9814 522.36 85.8062C522.024 85.4212 521.851 84.9198 521.88 84.4094V67.6574C521.86 67.4041 521.893 67.1495 521.975 66.9093C522.058 66.6691 522.189 66.4483 522.36 66.2606C522.547 66.0933 522.766 65.9648 523.003 65.8824C523.241 65.8 523.492 65.7654 523.742 65.7806H530.683C532.91 65.7806 534.629 66.3406 535.838 67.4606C537.048 68.5806 537.653 70.1358 537.653 72.1262C537.653 74.123 537.048 75.683 535.838 76.8062C534.629 77.9294 532.91 78.4894 530.683 78.4862H525.571V84.419C525.601 84.9263 525.437 85.426 525.11 85.8158C524.803 86.1454 524.342 86.3102 523.728 86.3102ZM525.571 75.5678H530.131C531.437 75.5678 532.426 75.275 533.098 74.6894C533.77 74.1038 534.106 73.2446 534.106 72.1118C534.106 70.979 533.77 70.1246 533.098 69.5486C532.426 68.9726 531.43 68.6878 530.112 68.6942H525.552L525.571 75.5678Z" fill="#00AEEF"/>
<path d="M547.258 86.3774C545.833 86.4145 544.42 86.1083 543.139 85.4846C542.021 84.9212 541.094 84.0394 540.475 82.9502C539.827 81.7589 539.504 80.4179 539.539 79.0622C539.507 77.7255 539.82 76.4032 540.446 75.2222C541.031 74.1533 541.898 73.2651 542.952 72.6542C543.913 72.1269 544.977 71.814 546.071 71.7369C547.165 71.6599 548.262 71.8205 549.288 72.2078C550.066 72.521 550.764 73.003 551.333 73.619C551.917 74.2636 552.358 75.0241 552.629 75.851C552.939 76.8038 553.09 77.8011 553.075 78.803C553.084 78.9543 553.056 79.1055 552.993 79.2435C552.93 79.3815 552.835 79.5021 552.715 79.595C552.413 79.7952 552.054 79.8913 551.693 79.8686H542.448V77.795H550.541L550.08 78.227C550.103 77.469 549.971 76.7143 549.691 76.0094C549.462 75.451 549.071 74.9744 548.568 74.6414C548.018 74.3064 547.383 74.1396 546.739 74.1614C546.012 74.1392 545.295 74.3348 544.68 74.723C544.102 75.112 543.651 75.663 543.384 76.307C543.069 77.0788 542.917 77.9073 542.938 78.7406V78.9422C542.938 80.5166 543.307 81.6926 544.046 82.4702C544.786 83.2478 545.875 83.6366 547.315 83.6366C547.88 83.629 548.443 83.5663 548.995 83.4494C549.615 83.3259 550.213 83.1073 550.766 82.8014C551.082 82.5943 551.454 82.4888 551.832 82.499C552.109 82.5141 552.371 82.6322 552.566 82.8302C552.75 83.0238 552.866 83.2711 552.898 83.5358C552.933 83.8285 552.878 84.1251 552.739 84.3854C552.57 84.6995 552.316 84.9591 552.005 85.1342C551.29 85.574 550.506 85.8904 549.686 86.0702C548.891 86.2637 548.076 86.3668 547.258 86.3774Z" fill="#00AEEF"/>
<path d="M560.563 86.3774C559.623 86.3944 558.691 86.1922 557.842 85.787C557.087 85.4295 556.441 84.8779 555.97 84.1886C555.518 83.5164 555.282 82.7229 555.293 81.9134C555.293 80.8766 555.562 80.0558 556.099 79.451C556.637 78.8462 557.51 78.4126 558.72 78.1502C559.93 77.8814 561.552 77.747 563.587 77.747H565.027V79.8206H563.616C562.663 79.8051 561.709 79.8629 560.765 79.9934C560.054 80.1086 559.55 80.3054 559.253 80.5838C559.1 80.7355 558.981 80.9179 558.904 81.119C558.827 81.3201 558.794 81.5352 558.806 81.7502C558.797 82.0419 558.852 82.3322 558.966 82.6007C559.081 82.8693 559.252 83.1098 559.469 83.3054C559.91 83.7086 560.525 83.9102 561.312 83.9102C561.903 83.9204 562.484 83.7658 562.992 83.4638C563.482 83.1658 563.884 82.7436 564.158 82.2398C564.454 81.6917 564.603 81.0767 564.59 80.4542V77.1422C564.59 76.1822 564.379 75.491 563.957 75.0686C563.534 74.6462 562.824 74.435 561.826 74.435C561.22 74.4403 560.617 74.5079 560.026 74.6366C559.325 74.7904 558.644 75.0223 557.995 75.3278C557.703 75.4898 557.362 75.541 557.035 75.4718C556.766 75.4008 556.534 75.2289 556.387 74.9918C556.231 74.7569 556.148 74.4816 556.147 74.1998C556.153 73.9007 556.236 73.608 556.387 73.3502C556.561 73.055 556.838 72.8344 557.165 72.731C557.986 72.3851 558.84 72.1246 559.714 71.9534C560.449 71.8047 561.196 71.7243 561.946 71.7134C563.328 71.7134 564.466 71.9246 565.358 72.347C566.223 72.743 566.928 73.4196 567.36 74.267C567.808 75.1214 568.032 76.2206 568.032 77.5646V84.4766C568.066 84.9707 567.911 85.4593 567.6 85.8446C567.44 86.0092 567.247 86.1373 567.033 86.2202C566.82 86.303 566.59 86.3387 566.362 86.3246C566.131 86.3378 565.9 86.3018 565.684 86.219C565.468 86.1363 565.272 86.0087 565.109 85.8446C564.788 85.4637 564.628 84.9732 564.662 84.4766V83.0942H564.902C564.789 83.7241 564.522 84.3163 564.125 84.8186C563.728 85.3208 563.214 85.7177 562.627 85.9742C561.976 86.2558 561.272 86.3933 560.563 86.3774Z" fill="#00AEEF"/>
<path d="M578.189 86.3774C576.846 86.4099 575.517 86.0975 574.33 85.4702C573.249 84.8798 572.367 83.983 571.795 82.8926C571.18 81.6805 570.877 80.3344 570.912 78.9758C570.895 77.9409 571.066 76.9115 571.416 75.9374C571.728 75.0816 572.225 74.3049 572.87 73.6622C573.527 73.0236 574.313 72.5327 575.174 72.2222C576.144 71.8747 577.168 71.704 578.198 71.7182C578.892 71.7256 579.583 71.8126 580.258 71.9774C580.996 72.1497 581.701 72.4415 582.346 72.8414C582.62 72.9956 582.834 73.2397 582.95 73.5326C583.042 73.7929 583.063 74.0733 583.01 74.3443C582.957 74.6153 582.832 74.8671 582.648 75.0734C582.467 75.2755 582.22 75.408 581.952 75.4478C581.642 75.4878 581.327 75.4218 581.059 75.2606C580.653 75.0181 580.218 74.8293 579.763 74.699C579.351 74.5785 578.925 74.5155 578.496 74.5118C577.921 74.4989 577.35 74.6017 576.816 74.8142C576.348 75.0069 575.93 75.3022 575.592 75.6782C575.239 76.0829 574.979 76.5595 574.829 77.075C574.647 77.6985 574.56 78.3456 574.57 78.995C574.57 80.4158 574.91 81.5358 575.592 82.355C576.274 83.1742 577.238 83.5822 578.486 83.579C578.91 83.5762 579.331 83.5181 579.739 83.4062C580.197 83.2801 580.638 83.0962 581.05 82.859C581.312 82.6978 581.624 82.6365 581.928 82.6862C582.181 82.7401 582.409 82.8769 582.576 83.075C582.75 83.2788 582.86 83.5291 582.893 83.795C582.931 84.0727 582.896 84.3556 582.792 84.6158C582.676 84.8969 582.468 85.1304 582.202 85.2782C581.576 85.6586 580.896 85.9403 580.186 86.1134C579.533 86.2798 578.862 86.3684 578.189 86.3774Z" fill="#00AEEF"/>
<path d="M592.212 86.3774C590.787 86.4145 589.375 86.1083 588.093 85.4846C586.975 84.9218 586.049 84.0397 585.432 82.9502C584.782 81.7595 584.458 80.4182 584.493 79.0622C584.462 77.7257 584.775 76.4036 585.401 75.2222C585.986 74.1531 586.854 73.265 587.909 72.6542C588.869 72.1269 589.933 71.814 591.026 71.737C592.12 71.6599 593.217 71.8205 594.242 72.2078C595.02 72.5215 595.719 73.0034 596.289 73.619C596.872 74.2644 597.312 75.0247 597.583 75.851C597.894 76.8036 598.045 77.801 598.032 78.803C598.04 78.9542 598.011 79.1052 597.949 79.2431C597.886 79.381 597.791 79.5017 597.672 79.595C597.369 79.7939 597.011 79.8899 596.649 79.8686H587.402V77.795H595.497L595.037 78.227C595.059 77.469 594.927 76.7143 594.648 76.0094C594.418 75.4508 594.026 74.9742 593.522 74.6414C592.972 74.3064 592.337 74.1396 591.693 74.1614C590.965 74.1397 590.247 74.337 589.632 74.7278C589.052 75.1154 588.601 75.6668 588.336 76.3118C588.019 77.083 587.866 77.9118 587.887 78.7454V78.947C587.887 80.5214 588.257 81.6974 588.996 82.475C589.735 83.2526 590.827 83.6414 592.272 83.6414C592.836 83.6335 593.399 83.5708 593.952 83.4542C594.572 83.33 595.169 83.1114 595.723 82.8062C596.038 82.5991 596.409 82.4936 596.786 82.5038C597.064 82.5194 597.327 82.6374 597.523 82.835C597.704 83.0298 597.82 83.2766 597.854 83.5406C597.888 83.8332 597.832 84.1292 597.696 84.3902C597.526 84.7048 597.271 84.9646 596.959 85.139C596.245 85.5784 595.462 85.8948 594.643 86.075C593.846 86.2668 593.031 86.3682 592.212 86.3774Z" fill="#00AEEF"/>
<path d="M610.992 86.0894C610.727 86.1211 610.459 86.0923 610.206 86.005C609.954 85.9178 609.726 85.7745 609.537 85.5859C609.348 85.3974 609.205 85.1684 609.118 84.9164C609.031 84.6644 609.002 84.3958 609.033 84.131V67.7438C609.002 67.479 609.031 67.2105 609.118 66.9585C609.205 66.7064 609.348 66.4775 609.537 66.2889C609.726 66.1003 609.954 65.957 610.206 65.8698C610.459 65.7826 610.727 65.7537 610.992 65.7854H616.579C619.977 65.7854 622.603 66.659 624.456 68.4062C626.309 70.1534 627.235 72.659 627.235 75.923C627.261 77.3984 627.022 78.8665 626.529 80.2574C626.091 81.4605 625.38 82.5463 624.453 83.4302C623.496 84.3216 622.356 84.9947 621.113 85.403C619.648 85.8772 618.116 86.1059 616.577 86.0798L610.992 86.0894ZM612.72 83.0366H616.349C617.398 83.0577 618.444 82.9069 619.445 82.5902C620.267 82.3239 621.016 81.8704 621.633 81.2654C622.242 80.6419 622.691 79.8814 622.944 79.0478C623.249 78.0365 623.394 76.9839 623.376 75.9278C623.376 73.547 622.79 71.771 621.619 70.5998C620.448 69.4286 618.688 68.843 616.339 68.843H612.717L612.72 83.0366Z" fill="#00AEEF"/>
<path d="M637.572 86.3774C636.147 86.4145 634.735 86.1083 633.454 85.4846C632.335 84.9212 631.408 84.0394 630.79 82.9502C630.142 81.7589 629.819 80.4179 629.854 79.0622C629.822 77.7255 630.134 76.4032 630.761 75.2222C631.346 74.1533 632.212 73.2651 633.266 72.6542C634.228 72.1269 635.292 71.814 636.386 71.7369C637.479 71.6599 638.577 71.8205 639.602 72.2078C640.38 72.521 641.079 73.003 641.647 73.619C642.231 74.2636 642.673 75.0241 642.943 75.851C643.253 76.8038 643.404 77.8011 643.39 78.803C643.398 78.9543 643.37 79.1055 643.308 79.2435C643.245 79.3815 643.149 79.5021 643.03 79.595C642.728 79.7952 642.369 79.8913 642.007 79.8686H632.762V77.795H640.855L640.394 78.227C640.417 77.469 640.285 76.7143 640.006 76.0094C639.777 75.451 639.386 74.9744 638.882 74.6414C638.333 74.3064 637.697 74.1396 637.054 74.1614C636.325 74.1402 635.607 74.3375 634.992 74.7278C634.414 75.1168 633.963 75.6678 633.696 76.3118C633.381 77.0836 633.229 77.9121 633.25 78.7454V78.947C633.25 80.5214 633.619 81.6974 634.358 82.475C635.098 83.2526 636.189 83.6414 637.632 83.6414C638.197 83.6338 638.759 83.5711 639.312 83.4542C639.932 83.3307 640.53 83.1121 641.083 82.8062C641.399 82.5991 641.771 82.4936 642.149 82.5038C642.426 82.5189 642.688 82.637 642.883 82.835C643.066 83.0286 643.183 83.276 643.214 83.5406C643.25 83.8333 643.195 84.1299 643.056 84.3902C642.887 84.7043 642.632 84.9639 642.322 85.139C641.607 85.5788 640.823 85.8952 640.003 86.075C639.207 86.2671 638.391 86.3685 637.572 86.3774Z" fill="#00AEEF"/>
<path d="M651.943 86.3102C651.496 86.3202 651.058 86.1892 650.69 85.9358C650.298 85.6388 649.994 85.2405 649.812 84.7838L645.232 74.1662C645.068 73.7958 645.003 73.3886 645.045 72.9854C645.066 72.8109 645.122 72.6426 645.211 72.4913C645.301 72.34 645.421 72.2091 645.564 72.107C645.925 71.8677 646.355 71.7515 646.788 71.7758C647.166 71.7573 647.541 71.8635 647.853 72.0782C648.192 72.3852 648.441 72.7784 648.573 73.2158L652.461 82.9214H651.597L655.6 73.187C655.738 72.7566 655.992 72.3727 656.335 72.0782C656.673 71.8597 657.071 71.7539 657.472 71.7758C657.838 71.7565 658.198 71.8747 658.48 72.107C658.732 72.331 658.895 72.6374 658.941 72.971C658.992 73.3712 658.922 73.7774 658.74 74.1374L654.074 84.7934C653.908 85.2515 653.613 85.6516 653.224 85.9454C652.846 86.1983 652.398 86.3259 651.943 86.3102Z" fill="#00AEEF"/>
<path d="M668.352 86.3774C666.927 86.4145 665.515 86.1083 664.234 85.4846C663.118 84.92 662.193 84.0383 661.577 82.9502C660.929 81.7589 660.606 80.4179 660.641 79.0622C660.609 77.7255 660.921 76.4032 661.548 75.2222C662.133 74.1533 662.999 73.2651 664.054 72.6542C665.015 72.1269 666.079 71.814 667.173 71.7369C668.266 71.6599 669.364 71.8205 670.39 72.2078C671.166 72.5213 671.864 73.0033 672.432 73.619C673.016 74.2636 673.458 75.0241 673.728 75.851C674.038 76.8038 674.189 77.8011 674.174 78.803C674.183 78.9543 674.155 79.1055 674.092 79.2435C674.03 79.3815 673.934 79.5021 673.814 79.595C673.512 79.7952 673.153 79.8913 672.792 79.8686H663.552V77.795H671.645L671.184 78.227C671.207 77.469 671.075 76.7143 670.795 76.0094C670.566 75.451 670.175 74.9744 669.672 74.6414C669.122 74.3064 668.487 74.1396 667.843 74.1614C667.116 74.1392 666.399 74.3348 665.784 74.723C665.205 75.112 664.755 75.663 664.488 76.307C664.169 77.0796 664.014 77.9098 664.032 78.7454V78.947C664.032 80.5214 664.402 81.6974 665.141 82.475C665.88 83.2526 666.97 83.6414 668.41 83.6414C668.974 83.6338 669.537 83.5711 670.09 83.4542C670.71 83.3307 671.307 83.1121 671.861 82.8062C672.177 82.5991 672.549 82.4936 672.926 82.5038C673.204 82.5189 673.466 82.637 673.661 82.835C673.844 83.0286 673.96 83.276 673.992 83.5406C674.027 83.8333 673.972 84.1299 673.834 84.3902C673.665 84.7043 673.41 84.9639 673.099 85.139C672.384 85.5788 671.601 85.8952 670.781 86.075C669.985 86.2669 669.17 86.3684 668.352 86.3774Z" fill="#00AEEF"/>
<path d="M681.837 86.3773C680.237 86.3773 679.037 85.9214 678.237 85.0093C677.437 84.0973 677.037 82.7581 677.037 80.9917V67.3693C677.02 67.1244 677.052 66.8784 677.131 66.6458C677.21 66.4133 677.335 66.1991 677.498 66.0157C677.677 65.8538 677.886 65.7296 678.114 65.6504C678.341 65.5712 678.583 65.5388 678.823 65.5549C679.066 65.5397 679.309 65.5725 679.539 65.6516C679.769 65.7307 679.98 65.8544 680.162 66.0157C680.331 66.1964 680.46 66.4098 680.543 66.6427C680.625 66.8755 680.659 67.1229 680.642 67.3693V80.8093C680.642 81.6925 680.829 82.3454 681.204 82.7678C681.407 82.9843 681.656 83.1533 681.932 83.2628C682.209 83.3723 682.506 83.4196 682.802 83.4014C682.962 83.4014 683.106 83.3966 683.234 83.387C683.362 83.3774 683.497 83.3629 683.637 83.3438C683.74 83.3139 683.849 83.319 683.948 83.3581C684.047 83.3972 684.13 83.4681 684.185 83.5597C684.308 83.9157 684.357 84.293 684.329 84.6686C684.352 85.0638 684.251 85.4564 684.041 85.7917C683.924 85.9351 683.778 86.052 683.612 86.1348C683.447 86.2175 683.266 86.2642 683.081 86.2717L682.476 86.3293C682.261 86.3614 682.049 86.3773 681.837 86.3773Z" fill="#00AEEF"/>
<path d="M692.638 86.3774C691.315 86.4102 690.006 86.1027 688.836 85.4846C687.769 84.8983 686.898 84.0121 686.33 82.9358C685.711 81.7301 685.404 80.3884 685.438 79.0334C685.421 77.9985 685.592 76.9691 685.942 75.995C686.258 75.1329 686.754 74.3476 687.396 73.691C688.039 73.0419 688.815 72.5407 689.671 72.2222C690.621 71.8747 691.626 71.7038 692.638 71.7182C693.958 71.6867 695.264 71.9941 696.432 72.611C697.496 73.1943 698.366 74.075 698.938 75.1454C699.558 76.3455 699.865 77.6829 699.83 79.0334C699.846 80.0729 699.675 81.1069 699.326 82.0862C699.012 82.9537 698.516 83.7442 697.872 84.4046C697.229 85.0537 696.453 85.5549 695.597 85.8734C694.649 86.2201 693.646 86.3909 692.638 86.3774ZM692.638 83.6414C693.307 83.6639 693.967 83.4779 694.526 83.109C695.085 82.74 695.515 82.2065 695.758 81.5822C696.079 80.772 696.231 79.9046 696.204 79.0334C696.204 77.4974 695.878 76.3502 695.225 75.5918C694.906 75.2191 694.508 74.9232 694.059 74.7262C693.61 74.5292 693.123 74.4362 692.633 74.4542C691.973 74.4403 691.324 74.6152 690.761 74.9582C690.196 75.3263 689.759 75.8592 689.508 76.4846C689.187 77.2948 689.035 78.1622 689.062 79.0334C689.062 80.5502 689.388 81.6974 690.041 82.475C690.355 82.8557 690.753 83.1589 691.203 83.3612C691.653 83.5634 692.144 83.6593 692.638 83.6414Z" fill="#00AEEF"/>
<path d="M704.592 91.5038C704.351 91.52 704.11 91.4875 703.882 91.4083C703.655 91.3291 703.445 91.2049 703.267 91.043C703.103 90.8596 702.978 90.6454 702.899 90.4129C702.82 90.1804 702.788 89.9344 702.806 89.6894V73.5902C702.788 73.3452 702.82 73.0992 702.899 72.8667C702.978 72.6342 703.103 72.4199 703.267 72.2366C703.441 72.0763 703.645 71.9529 703.868 71.8737C704.09 71.7945 704.327 71.7612 704.563 71.7758C704.803 71.7596 705.045 71.7921 705.272 71.8712C705.5 71.9504 705.709 72.0747 705.888 72.2366C706.051 72.4199 706.176 72.6342 706.255 72.8667C706.334 73.0992 706.366 73.3452 706.348 73.5902V75.8366L706.032 74.9726C706.317 73.997 706.946 73.1579 707.803 72.611C708.729 72.0064 709.817 71.6953 710.923 71.7182C712.067 71.6945 713.193 72.0048 714.163 72.611C715.112 73.2272 715.867 74.1014 716.337 75.131C716.885 76.3573 717.151 77.6908 717.115 79.0334C717.147 80.3756 716.881 81.7083 716.337 82.9358C715.875 83.974 715.125 84.8583 714.177 85.4846C713.203 86.0945 712.072 86.405 710.923 86.3774C709.831 86.4001 708.757 86.0941 707.841 85.499C706.999 84.9657 706.368 84.1564 706.056 83.2094H706.401V89.6894C706.418 89.9359 706.384 90.1832 706.302 90.4161C706.219 90.6489 706.09 90.8623 705.921 91.043C705.556 91.3664 705.078 91.5321 704.592 91.5038ZM709.92 83.6414C710.589 83.6639 711.249 83.4778 711.808 83.1089C712.367 82.74 712.797 82.2065 713.04 81.5822C713.361 80.772 713.513 79.9045 713.486 79.0334C713.486 77.4974 713.16 76.3502 712.507 75.5918C712.188 75.2191 711.79 74.9232 711.341 74.7262C710.892 74.5292 710.405 74.4362 709.915 74.4542C709.256 74.4403 708.606 74.6151 708.043 74.9582C707.478 75.3262 707.041 75.8592 706.79 76.4846C706.469 77.2948 706.317 78.1622 706.344 79.0334C706.344 80.5502 706.67 81.6974 707.323 82.475C707.637 82.8553 708.034 83.1584 708.484 83.3606C708.934 83.5629 709.424 83.6589 709.917 83.6414H709.92Z" fill="#00AEEF"/>
<path d="M727.025 86.3774C725.6 86.4146 724.188 86.1083 722.906 85.4846C721.787 84.9218 720.86 84.0398 720.242 82.9502C719.594 81.7589 719.271 80.4179 719.306 79.0622C719.274 77.7256 719.587 76.4032 720.213 75.2222C720.797 74.1498 721.664 73.2582 722.719 72.6446C723.68 72.1173 724.744 71.8044 725.838 71.7273C726.932 71.6503 728.029 71.8109 729.055 72.1982C729.833 72.5114 730.531 72.9934 731.1 73.6094C731.682 74.2552 732.124 75.0154 732.396 75.8414C732.706 76.7942 732.857 77.7915 732.842 78.7934C732.851 78.9447 732.823 79.0959 732.76 79.2339C732.697 79.3719 732.602 79.4925 732.482 79.5854C732.18 79.7856 731.821 79.8817 731.46 79.859H722.215V77.7854H730.308L729.847 78.2174C729.87 77.4594 729.738 76.7047 729.458 75.9998C729.23 75.4414 728.838 74.9648 728.335 74.6318C727.785 74.2968 727.15 74.13 726.506 74.1518C725.779 74.1294 725.062 74.3249 724.447 74.7134C723.869 75.1024 723.418 75.6534 723.151 76.2974C722.835 77.0688 722.683 77.8976 722.705 78.731V78.9326C722.705 80.507 723.074 81.683 723.813 82.4606C724.553 83.2382 725.642 83.627 727.082 83.627C727.647 83.6193 728.21 83.5566 728.762 83.4398C729.383 83.3163 729.98 83.0978 730.533 82.7918C730.849 82.5847 731.221 82.4792 731.599 82.4894C731.876 82.5052 732.138 82.6232 732.333 82.8206C732.517 83.0142 732.633 83.2616 732.665 83.5262C732.7 83.8189 732.645 84.1155 732.506 84.3758C732.337 84.6899 732.083 84.9495 731.772 85.1246C731.057 85.564 730.273 85.8804 729.453 86.0606C728.658 86.2572 727.844 86.3635 727.025 86.3774Z" fill="#00AEEF"/>
<path d="M737.537 86.3102C737.288 86.3394 737.035 86.3118 736.798 86.2295C736.561 86.1472 736.346 86.0124 736.168 85.8351C735.991 85.6578 735.855 85.4426 735.773 85.2057C735.69 84.9688 735.662 84.7162 735.691 84.467V73.5902C735.674 73.3452 735.705 73.0992 735.784 72.8667C735.864 72.6342 735.989 72.4199 736.152 72.2366C736.518 71.9384 736.976 71.7755 737.448 71.7755C737.92 71.7755 738.378 71.9384 738.744 72.2366C738.908 72.4197 739.033 72.6339 739.113 72.8664C739.192 73.0989 739.225 73.345 739.207 73.5902V75.4046H738.912C739.179 74.2526 739.706 73.379 740.494 72.7838C741.281 72.1886 742.328 71.8334 743.635 71.7182C743.808 71.6921 743.984 71.7058 744.15 71.7582C744.317 71.8106 744.469 71.9004 744.595 72.0206C744.861 72.3293 745.008 72.7223 745.01 73.1294C745.039 73.3361 745.024 73.5466 744.967 73.7473C744.91 73.9481 744.812 74.1349 744.679 74.2958C744.373 74.6154 743.957 74.8061 743.515 74.8286L742.879 74.8862C741.708 75.0014 740.828 75.3614 740.239 75.9662C739.65 76.571 739.354 77.4206 739.349 78.515V84.4766C739.382 84.9755 739.216 85.4672 738.888 85.8446C738.706 86.0099 738.493 86.1364 738.26 86.2164C738.028 86.2965 737.782 86.3284 737.537 86.3102Z" fill="#00AEEF"/>
<path d="M764.894 86.3774C762.654 86.3774 760.758 85.955 759.206 85.1102C757.692 84.2969 756.461 83.0411 755.678 81.5102C754.878 79.955 754.478 78.115 754.478 75.9902C754.456 74.5106 754.694 73.0385 755.182 71.6414C755.619 70.4077 756.317 69.2829 757.229 68.3438C758.15 67.412 759.265 66.6942 760.495 66.2414C761.897 65.7319 763.381 65.483 764.873 65.507C765.964 65.509 767.052 65.6395 768.113 65.8958C769.202 66.1568 770.239 66.5998 771.18 67.2062C771.479 67.3836 771.707 67.6581 771.828 67.9838C771.933 68.2849 771.948 68.6103 771.871 68.9198C771.8 69.226 771.651 69.5086 771.439 69.7406C771.232 69.9688 770.954 70.1209 770.65 70.1726C770.282 70.2178 769.91 70.1329 769.598 69.9326C768.904 69.5251 768.157 69.215 767.378 69.011C766.558 68.8107 765.717 68.7139 764.873 68.723C763.452 68.723 762.252 69.0062 761.273 69.5726C760.296 70.138 759.524 71.0007 759.072 72.035C758.582 73.1102 758.337 74.4254 758.337 75.9806C758.337 78.3422 758.904 80.1374 760.037 81.3662C761.17 82.595 762.85 83.2094 765.077 83.2094C765.861 83.2046 766.643 83.1243 767.412 82.9694C768.194 82.8167 768.963 82.6049 769.713 82.3358L768.993 83.9774V77.8526H765.826C765.421 77.8793 765.022 77.7447 764.717 77.4782C764.585 77.3466 764.483 77.1889 764.416 77.0153C764.349 76.8417 764.319 76.6561 764.328 76.4702C764.315 76.284 764.343 76.0972 764.41 75.9231C764.478 75.7489 764.582 75.5916 764.717 75.4622C765.031 75.2135 765.426 75.0904 765.826 75.1166H770.577C770.78 75.0941 770.984 75.1174 771.176 75.1847C771.368 75.252 771.542 75.3617 771.686 75.5055C771.83 75.6493 771.94 75.8236 772.007 76.0155C772.074 76.2075 772.098 76.4121 772.075 76.6142V83.6126C772.089 83.9826 772.006 84.3499 771.835 84.6782C771.657 84.978 771.377 85.2032 771.046 85.3118C770.098 85.6455 769.126 85.9007 768.137 86.075C767.067 86.2745 765.982 86.3758 764.894 86.3774Z" fill="#00AEEF"/>
<path d="M777.825 86.3102C777.576 86.3394 777.324 86.3119 777.087 86.2296C776.85 86.1473 776.635 86.0124 776.457 85.8351C776.28 85.6577 776.145 85.4425 776.063 85.2055C775.981 84.9686 775.953 84.7161 775.982 84.467V73.5902C775.965 73.3452 775.996 73.0992 776.076 72.8667C776.155 72.6342 776.28 72.4199 776.443 72.2366C776.809 71.9384 777.267 71.7755 777.739 71.7755C778.211 71.7755 778.669 71.9384 779.035 72.2366C779.199 72.4199 779.324 72.6342 779.403 72.8667C779.482 73.0992 779.514 73.3452 779.496 73.5902V75.4046H779.208C779.477 74.2526 780.005 73.379 780.792 72.7838C781.579 72.1886 782.625 71.8334 783.931 71.7182C784.104 71.6917 784.28 71.7053 784.446 71.7577C784.613 71.8101 784.765 71.9001 784.891 72.0206C785.158 72.3283 785.307 72.7217 785.309 73.1294C785.337 73.3361 785.322 73.5464 785.265 73.7471C785.208 73.9478 785.11 74.1346 784.977 74.2958C784.671 74.616 784.254 74.8067 783.811 74.8286L783.177 74.8862C782.006 75.0014 781.126 75.3614 780.537 75.9662C779.949 76.571 779.651 77.4206 779.645 78.515V84.4766C779.679 84.9756 779.513 85.4677 779.184 85.8446C779.001 86.0111 778.787 86.1384 778.553 86.2185C778.319 86.2986 778.072 86.3298 777.825 86.3102Z" fill="#00AEEF"/>
<path d="M793.694 86.3774C792.372 86.4101 791.063 86.1027 789.893 85.4846C788.828 84.8975 787.959 84.0114 787.392 82.9358C786.773 81.7301 786.466 80.3884 786.499 79.0334C786.482 77.9985 786.653 76.9691 787.003 75.995C787.32 75.1329 787.815 74.3476 788.457 73.691C789.1 73.0419 789.877 72.5407 790.733 72.2222C791.682 71.8746 792.688 71.7038 793.699 71.7182C795.022 71.6854 796.331 71.9929 797.501 72.611C798.564 73.1942 799.435 74.075 800.006 75.1454C800.627 76.3455 800.934 77.6829 800.899 79.0334C800.915 80.0729 800.744 81.1069 800.395 82.0862C800.081 82.9537 799.585 83.7441 798.941 84.4046C798.298 85.0537 797.522 85.5549 796.665 85.8734C795.714 86.2215 794.707 86.3923 793.694 86.3774ZM793.694 83.6414C794.364 83.6639 795.023 83.4779 795.582 83.1089C796.141 82.74 796.572 82.2065 796.814 81.5822C797.136 80.772 797.287 79.9046 797.261 79.0334C797.261 77.4974 796.934 76.3502 796.281 75.5918C795.963 75.2191 795.565 74.9232 795.116 74.7262C794.667 74.5292 794.179 74.4362 793.689 74.4542C793.03 74.4403 792.381 74.6152 791.817 74.9582C791.253 75.3263 790.816 75.8592 790.565 76.4846C790.243 77.2948 790.091 78.1622 790.118 79.0334C790.118 80.5502 790.445 81.6974 791.097 82.475C791.412 82.8557 791.809 83.1589 792.26 83.3612C792.71 83.5634 793.201 83.6593 793.694 83.6414Z" fill="#00AEEF"/>
<path d="M808.958 86.3774C807.949 86.415 806.947 86.1918 806.049 85.7294C805.276 85.2919 804.673 84.6072 804.336 83.7854C803.932 82.7594 803.741 81.662 803.774 80.5598V73.5902C803.774 72.9758 803.928 72.5198 804.235 72.2222C804.6 71.9038 805.077 71.7433 805.56 71.7758C806.047 71.7452 806.528 71.9052 806.899 72.2222C807.219 72.5198 807.379 72.9758 807.379 73.5902V80.6174C807.379 81.6158 807.581 82.355 807.984 82.835C808.387 83.315 809.027 83.555 809.904 83.555C810.346 83.5688 810.785 83.4872 811.193 83.3157C811.601 83.1442 811.966 82.887 812.265 82.5614C812.88 81.899 813.187 81.019 813.187 79.9214V73.5902C813.187 72.9758 813.341 72.5198 813.648 72.2222C814.013 71.9038 814.489 71.7433 814.973 71.7758C815.46 71.7452 815.94 71.9052 816.312 72.2222C816.632 72.5198 816.792 72.9758 816.792 73.5902V84.4766C816.792 85.7054 816.206 86.3198 815.035 86.3198C814.798 86.3337 814.56 86.2982 814.337 86.2156C814.114 86.133 813.91 86.005 813.739 85.8398C813.41 85.4629 813.244 84.9709 813.278 84.4718V82.283L813.681 83.147C813.344 84.1202 812.703 84.9593 811.853 85.5401C811.002 86.121 809.987 86.4128 808.958 86.3726V86.3774Z" fill="#00AEEF"/>
<path d="M822.322 91.5038C822.081 91.52 821.84 91.4875 821.612 91.4083C821.385 91.3291 821.175 91.2049 820.997 91.043C820.833 90.8596 820.708 90.6454 820.629 90.4129C820.55 90.1804 820.518 89.9344 820.536 89.6894V73.5902C820.518 73.3452 820.55 73.0992 820.629 72.8667C820.708 72.6342 820.833 72.4199 820.997 72.2366C821.171 72.0763 821.375 71.9529 821.598 71.8737C821.82 71.7945 822.057 71.7612 822.293 71.7758C822.533 71.7596 822.775 71.7921 823.002 71.8712C823.23 71.9504 823.439 72.0747 823.618 72.2366C823.781 72.4199 823.906 72.6342 823.985 72.8667C824.064 73.0992 824.096 73.3452 824.078 73.5902V75.8366L823.762 74.9726C824.047 73.997 824.676 73.1579 825.533 72.611C826.459 72.0064 827.547 71.6953 828.653 71.7182C829.797 71.6945 830.923 72.0048 831.893 72.611C832.842 73.2272 833.597 74.1014 834.067 75.131C834.615 76.3573 834.881 77.6908 834.845 79.0334C834.877 80.3756 834.611 81.7083 834.067 82.9358C833.605 83.974 832.855 84.8583 831.907 85.4846C830.933 86.0945 829.802 86.405 828.653 86.3774C827.561 86.4001 826.487 86.0941 825.571 85.499C824.729 84.9657 824.098 84.1564 823.786 83.2094H824.131V89.6894C824.148 89.9359 824.114 90.1832 824.032 90.4161C823.949 90.6489 823.82 90.8623 823.651 91.043C823.286 91.3664 822.808 91.5321 822.322 91.5038ZM827.65 83.6414C828.319 83.6639 828.979 83.4778 829.538 83.1089C830.097 82.74 830.527 82.2065 830.77 81.5822C831.091 80.772 831.243 79.9045 831.216 79.0334C831.216 77.4974 830.89 76.3502 830.237 75.5918C829.918 75.2191 829.52 74.9232 829.071 74.7262C828.622 74.5292 828.135 74.4362 827.645 74.4542C826.985 74.4403 826.336 74.6151 825.773 74.9582C825.208 75.3262 824.771 75.8592 824.52 76.4846C824.199 77.2948 824.047 78.1622 824.074 79.0334C824.074 80.5502 824.4 81.6974 825.053 82.475C825.367 82.8557 825.765 83.1589 826.215 83.3612C826.665 83.5634 827.156 83.6593 827.65 83.6414Z" fill="#00AEEF"/>
<path d="M395.56 170.292C395.293 170.292 395.08 170.232 394.92 170.112C394.76 169.992 394.667 169.832 394.64 169.632C394.613 169.432 394.653 169.205 394.76 168.952L400.18 156.792C400.313 156.472 400.48 156.245 400.68 156.112C400.893 155.978 401.127 155.912 401.38 155.912C401.62 155.912 401.84 155.978 402.04 156.112C402.253 156.245 402.427 156.472 402.56 156.792L407.98 168.952C408.1 169.205 408.147 169.438 408.12 169.652C408.093 169.852 408.007 170.012 407.86 170.132C407.713 170.238 407.507 170.292 407.24 170.292C406.947 170.292 406.713 170.218 406.54 170.072C406.367 169.925 406.213 169.698 406.08 169.392L404.68 166.152L405.62 166.712H397.1L398.02 166.152L396.64 169.392C396.507 169.712 396.36 169.945 396.2 170.092C396.04 170.225 395.827 170.292 395.56 170.292ZM401.34 158.352L398.32 165.512L397.82 165.032H404.88L404.42 165.512L401.38 158.352H401.34ZM415.387 170.332C414.533 170.332 413.793 170.118 413.167 169.692C412.54 169.252 412.12 168.672 411.907 167.952L412.127 167.592V169.272C412.127 169.592 412.04 169.845 411.867 170.032C411.693 170.205 411.453 170.292 411.147 170.292C410.827 170.292 410.58 170.205 410.407 170.032C410.233 169.845 410.147 169.592 410.147 169.272V156.932C410.147 156.598 410.233 156.345 410.407 156.172C410.58 155.998 410.827 155.912 411.147 155.912C411.467 155.912 411.713 155.998 411.887 156.172C412.073 156.345 412.167 156.598 412.167 156.932V162.532H411.927C412.14 161.825 412.56 161.265 413.187 160.852C413.813 160.425 414.547 160.212 415.387 160.212C416.267 160.212 417.027 160.418 417.667 160.832C418.307 161.245 418.8 161.825 419.147 162.572C419.507 163.318 419.687 164.218 419.687 165.272C419.687 166.298 419.507 167.198 419.147 167.972C418.8 168.732 418.3 169.318 417.647 169.732C417.007 170.132 416.253 170.332 415.387 170.332ZM414.887 168.772C415.447 168.772 415.933 168.638 416.347 168.372C416.76 168.105 417.08 167.712 417.307 167.192C417.533 166.672 417.647 166.032 417.647 165.272C417.647 164.125 417.393 163.258 416.887 162.672C416.393 162.085 415.727 161.792 414.887 161.792C414.34 161.792 413.853 161.925 413.427 162.192C413.013 162.445 412.693 162.832 412.467 163.352C412.24 163.872 412.127 164.512 412.127 165.272C412.127 166.405 412.38 167.272 412.887 167.872C413.393 168.472 414.06 168.772 414.887 168.772ZM426.203 170.332C425.216 170.332 424.363 170.125 423.643 169.712C422.936 169.298 422.383 168.712 421.983 167.952C421.583 167.192 421.383 166.298 421.383 165.272C421.383 164.485 421.496 163.785 421.723 163.172C421.95 162.558 422.27 162.032 422.683 161.592C423.11 161.138 423.616 160.798 424.203 160.572C424.803 160.332 425.47 160.212 426.203 160.212C427.176 160.212 428.016 160.418 428.723 160.832C429.443 161.245 430.003 161.832 430.403 162.592C430.803 163.338 431.003 164.232 431.003 165.272C431.003 166.045 430.89 166.745 430.663 167.372C430.436 167.998 430.11 168.532 429.683 168.972C429.27 169.412 428.763 169.752 428.163 169.992C427.576 170.218 426.923 170.332 426.203 170.332ZM426.203 168.772C426.75 168.772 427.23 168.638 427.643 168.372C428.056 168.105 428.376 167.712 428.603 167.192C428.843 166.672 428.963 166.032 428.963 165.272C428.963 164.125 428.71 163.258 428.203 162.672C427.696 162.085 427.03 161.792 426.203 161.792C425.643 161.792 425.156 161.925 424.743 162.192C424.33 162.445 424.003 162.832 423.763 163.352C423.536 163.872 423.423 164.512 423.423 165.272C423.423 166.405 423.676 167.272 424.183 167.872C424.69 168.472 425.363 168.772 426.203 168.772ZM436.752 170.332C435.965 170.332 435.305 170.185 434.772 169.892C434.252 169.598 433.858 169.165 433.592 168.592C433.338 168.005 433.212 167.272 433.212 166.392V161.272C433.212 160.925 433.298 160.672 433.472 160.512C433.645 160.338 433.892 160.252 434.212 160.252C434.532 160.252 434.778 160.338 434.952 160.512C435.138 160.672 435.232 160.925 435.232 161.272V166.412C435.232 167.198 435.392 167.778 435.712 168.152C436.032 168.525 436.538 168.712 437.232 168.712C437.992 168.712 438.605 168.458 439.072 167.952C439.552 167.432 439.792 166.752 439.792 165.912V161.272C439.792 160.925 439.878 160.672 440.052 160.512C440.225 160.338 440.478 160.252 440.812 160.252C441.132 160.252 441.378 160.338 441.552 160.512C441.725 160.672 441.812 160.925 441.812 161.272V169.272C441.812 169.952 441.485 170.292 440.832 170.292C440.525 170.292 440.285 170.205 440.112 170.032C439.938 169.845 439.852 169.592 439.852 169.272V167.572L440.112 168.012C439.845 168.758 439.418 169.332 438.832 169.732C438.245 170.132 437.552 170.332 436.752 170.332ZM448.818 170.332C448.018 170.332 447.345 170.192 446.798 169.912C446.252 169.632 445.845 169.218 445.578 168.672C445.312 168.125 445.178 167.458 445.178 166.672V161.952H443.978C443.712 161.952 443.505 161.885 443.358 161.752C443.212 161.605 443.138 161.412 443.138 161.172C443.138 160.918 443.212 160.725 443.358 160.592C443.505 160.458 443.712 160.392 443.978 160.392H445.178V158.332C445.178 157.998 445.265 157.745 445.438 157.572C445.625 157.398 445.878 157.312 446.198 157.312C446.518 157.312 446.765 157.398 446.938 157.572C447.112 157.745 447.198 157.998 447.198 158.332V160.392H449.538C449.805 160.392 450.012 160.458 450.158 160.592C450.305 160.725 450.378 160.918 450.378 161.172C450.378 161.412 450.305 161.605 450.158 161.752C450.012 161.885 449.805 161.952 449.538 161.952H447.198V166.512C447.198 167.218 447.345 167.752 447.638 168.112C447.945 168.472 448.438 168.652 449.118 168.652C449.358 168.652 449.565 168.632 449.738 168.592C449.925 168.538 450.078 168.505 450.198 168.492C450.345 168.492 450.465 168.545 450.558 168.652C450.652 168.745 450.698 168.932 450.698 169.212C450.698 169.412 450.658 169.598 450.578 169.772C450.512 169.945 450.385 170.058 450.198 170.112C450.038 170.165 449.818 170.212 449.538 170.252C449.272 170.305 449.032 170.332 448.818 170.332ZM463.156 170.332C462.21 170.332 461.376 170.212 460.656 169.972C459.936 169.718 459.33 169.345 458.836 168.852C458.356 168.358 457.99 167.745 457.736 167.012C457.483 166.278 457.356 165.432 457.356 164.472V156.952C457.356 156.605 457.443 156.345 457.616 156.172C457.803 155.998 458.063 155.912 458.396 155.912C458.73 155.912 458.983 155.998 459.156 156.172C459.343 156.345 459.436 156.605 459.436 156.952V164.432C459.436 165.805 459.75 166.832 460.376 167.512C461.016 168.192 461.943 168.532 463.156 168.532C464.383 168.532 465.31 168.192 465.936 167.512C466.563 166.832 466.876 165.805 466.876 164.432V156.952C466.876 156.605 466.963 156.345 467.136 156.172C467.323 155.998 467.576 155.912 467.896 155.912C468.23 155.912 468.483 155.998 468.656 156.172C468.83 156.345 468.916 156.605 468.916 156.952V164.472C468.916 165.752 468.696 166.832 468.256 167.712C467.83 168.578 467.19 169.232 466.336 169.672C465.483 170.112 464.423 170.332 463.156 170.332ZM475.324 170.332C474.738 170.332 474.131 170.265 473.504 170.132C472.891 169.998 472.324 169.772 471.804 169.452C471.631 169.332 471.511 169.198 471.444 169.052C471.378 168.905 471.351 168.758 471.364 168.612C471.391 168.452 471.451 168.318 471.544 168.212C471.651 168.092 471.778 168.018 471.924 167.992C472.084 167.965 472.251 167.998 472.424 168.092C472.944 168.385 473.444 168.592 473.924 168.712C474.404 168.818 474.878 168.872 475.344 168.872C476.051 168.872 476.584 168.745 476.944 168.492C477.304 168.238 477.484 167.898 477.484 167.472C477.484 167.125 477.364 166.858 477.124 166.672C476.884 166.472 476.524 166.318 476.044 166.212L474.144 165.832C473.318 165.658 472.691 165.352 472.264 164.912C471.838 164.472 471.624 163.912 471.624 163.232C471.624 162.618 471.791 162.085 472.124 161.632C472.458 161.178 472.924 160.832 473.524 160.592C474.124 160.338 474.818 160.212 475.604 160.212C476.191 160.212 476.744 160.285 477.264 160.432C477.784 160.578 478.264 160.798 478.704 161.092C478.878 161.185 478.991 161.312 479.044 161.472C479.098 161.618 479.104 161.765 479.064 161.912C479.038 162.058 478.971 162.192 478.864 162.312C478.758 162.418 478.624 162.485 478.464 162.512C478.318 162.525 478.151 162.485 477.964 162.392C477.564 162.138 477.164 161.958 476.764 161.852C476.378 161.745 475.991 161.692 475.604 161.692C474.898 161.692 474.364 161.825 474.004 162.092C473.658 162.345 473.484 162.692 473.484 163.132C473.484 163.465 473.591 163.738 473.804 163.952C474.018 164.165 474.351 164.318 474.804 164.412L476.704 164.792C477.571 164.965 478.224 165.258 478.664 165.672C479.118 166.085 479.344 166.645 479.344 167.352C479.344 168.272 478.978 168.998 478.244 169.532C477.511 170.065 476.538 170.332 475.324 170.332Z" fill="#00BFFF"/>
<path d="M539.96 170.332C538.533 170.332 537.313 170.038 536.3 169.452C535.287 168.865 534.507 168.032 533.96 166.952C533.427 165.858 533.16 164.572 533.16 163.092C533.16 161.985 533.313 160.992 533.62 160.112C533.927 159.218 534.367 158.458 534.94 157.832C535.527 157.192 536.24 156.705 537.08 156.372C537.933 156.038 538.893 155.872 539.96 155.872C540.747 155.872 541.5 155.978 542.22 156.192C542.953 156.405 543.587 156.712 544.12 157.112C544.347 157.258 544.493 157.438 544.56 157.652C544.64 157.852 544.653 158.045 544.6 158.232C544.56 158.418 544.473 158.578 544.34 158.712C544.207 158.832 544.033 158.898 543.82 158.912C543.62 158.925 543.4 158.852 543.16 158.692C542.72 158.358 542.233 158.112 541.7 157.952C541.167 157.792 540.607 157.712 540.02 157.712C539.007 157.712 538.153 157.925 537.46 158.352C536.767 158.765 536.24 159.372 535.88 160.172C535.52 160.972 535.34 161.945 535.34 163.092C535.34 164.238 535.52 165.218 535.88 166.032C536.24 166.832 536.767 167.445 537.46 167.872C538.153 168.285 539.007 168.492 540.02 168.492C540.607 168.492 541.167 168.412 541.7 168.252C542.247 168.078 542.76 167.825 543.24 167.492C543.48 167.345 543.693 167.278 543.88 167.292C544.08 167.305 544.247 167.372 544.38 167.492C544.513 167.612 544.6 167.765 544.64 167.952C544.693 168.125 544.687 168.312 544.62 168.512C544.567 168.698 544.44 168.858 544.24 168.992C543.693 169.432 543.047 169.765 542.3 169.992C541.553 170.218 540.773 170.332 539.96 170.332ZM550.473 170.332C549.486 170.332 548.633 170.125 547.913 169.712C547.206 169.298 546.653 168.712 546.253 167.952C545.853 167.192 545.653 166.298 545.653 165.272C545.653 164.485 545.766 163.785 545.993 163.172C546.219 162.558 546.539 162.032 546.953 161.592C547.379 161.138 547.886 160.798 548.473 160.572C549.073 160.332 549.739 160.212 550.473 160.212C551.446 160.212 552.286 160.418 552.993 160.832C553.713 161.245 554.273 161.832 554.673 162.592C555.073 163.338 555.273 164.232 555.273 165.272C555.273 166.045 555.159 166.745 554.933 167.372C554.706 167.998 554.379 168.532 553.953 168.972C553.539 169.412 553.033 169.752 552.433 169.992C551.846 170.218 551.193 170.332 550.473 170.332ZM550.473 168.772C551.019 168.772 551.499 168.638 551.913 168.372C552.326 168.105 552.646 167.712 552.873 167.192C553.113 166.672 553.233 166.032 553.233 165.272C553.233 164.125 552.979 163.258 552.473 162.672C551.966 162.085 551.299 161.792 550.473 161.792C549.913 161.792 549.426 161.925 549.013 162.192C548.599 162.445 548.273 162.832 548.033 163.352C547.806 163.872 547.693 164.512 547.693 165.272C547.693 166.405 547.946 167.272 548.453 167.872C548.959 168.472 549.633 168.772 550.473 168.772ZM558.541 170.292C558.221 170.292 557.974 170.205 557.801 170.032C557.628 169.845 557.541 169.592 557.541 169.272V161.272C557.541 160.938 557.628 160.685 557.801 160.512C557.974 160.338 558.214 160.252 558.521 160.252C558.841 160.252 559.081 160.338 559.241 160.512C559.414 160.685 559.501 160.938 559.501 161.272V162.832L559.281 162.472C559.574 161.725 560.034 161.165 560.661 160.792C561.288 160.405 562.008 160.212 562.821 160.212C563.594 160.212 564.234 160.358 564.741 160.652C565.261 160.932 565.648 161.365 565.901 161.952C566.154 162.525 566.281 163.252 566.281 164.132V169.272C566.281 169.592 566.194 169.845 566.021 170.032C565.848 170.205 565.601 170.292 565.281 170.292C564.948 170.292 564.694 170.205 564.521 170.032C564.348 169.845 564.261 169.592 564.261 169.272V164.252C564.261 163.412 564.094 162.798 563.761 162.412C563.441 162.025 562.934 161.832 562.241 161.832C561.428 161.832 560.774 162.085 560.281 162.592C559.801 163.098 559.561 163.778 559.561 164.632V169.272C559.561 169.952 559.221 170.292 558.541 170.292ZM573.225 170.332C572.425 170.332 571.751 170.192 571.205 169.912C570.658 169.632 570.251 169.218 569.985 168.672C569.718 168.125 569.585 167.458 569.585 166.672V161.952H568.385C568.118 161.952 567.911 161.885 567.765 161.752C567.618 161.605 567.545 161.412 567.545 161.172C567.545 160.918 567.618 160.725 567.765 160.592C567.911 160.458 568.118 160.392 568.385 160.392H569.585V158.332C569.585 157.998 569.671 157.745 569.845 157.572C570.031 157.398 570.285 157.312 570.605 157.312C570.925 157.312 571.171 157.398 571.345 157.572C571.518 157.745 571.605 157.998 571.605 158.332V160.392H573.945C574.211 160.392 574.418 160.458 574.565 160.592C574.711 160.725 574.785 160.918 574.785 161.172C574.785 161.412 574.711 161.605 574.565 161.752C574.418 161.885 574.211 161.952 573.945 161.952H571.605V166.512C571.605 167.218 571.751 167.752 572.045 168.112C572.351 168.472 572.845 168.652 573.525 168.652C573.765 168.652 573.971 168.632 574.145 168.592C574.331 168.538 574.485 168.505 574.605 168.492C574.751 168.492 574.871 168.545 574.965 168.652C575.058 168.745 575.105 168.932 575.105 169.212C575.105 169.412 575.065 169.598 574.985 169.772C574.918 169.945 574.791 170.058 574.605 170.112C574.445 170.165 574.225 170.212 573.945 170.252C573.678 170.305 573.438 170.332 573.225 170.332ZM579.489 170.332C578.809 170.332 578.196 170.198 577.649 169.932C577.116 169.665 576.696 169.305 576.389 168.852C576.083 168.398 575.929 167.885 575.929 167.312C575.929 166.592 576.109 166.025 576.469 165.612C576.843 165.185 577.449 164.885 578.289 164.712C579.143 164.525 580.289 164.432 581.729 164.432H582.669V165.672H581.749C580.789 165.672 580.029 165.718 579.469 165.812C578.909 165.905 578.509 166.065 578.269 166.292C578.043 166.505 577.929 166.805 577.929 167.192C577.929 167.698 578.103 168.112 578.449 168.432C578.796 168.738 579.276 168.892 579.889 168.892C580.383 168.892 580.816 168.778 581.189 168.552C581.563 168.312 581.856 167.992 582.069 167.592C582.296 167.192 582.409 166.732 582.409 166.212V163.912C582.409 163.152 582.249 162.605 581.929 162.272C581.609 161.938 581.083 161.772 580.349 161.772C579.923 161.772 579.476 161.825 579.009 161.932C578.556 162.038 578.083 162.218 577.589 162.472C577.363 162.578 577.169 162.612 577.009 162.572C576.849 162.532 576.723 162.445 576.629 162.312C576.536 162.165 576.483 162.012 576.469 161.852C576.469 161.678 576.509 161.512 576.589 161.352C576.683 161.192 576.836 161.072 577.049 160.992C577.636 160.712 578.216 160.512 578.789 160.392C579.363 160.272 579.903 160.212 580.409 160.212C581.303 160.212 582.036 160.352 582.609 160.632C583.196 160.912 583.629 161.338 583.909 161.912C584.189 162.485 584.329 163.225 584.329 164.132V169.272C584.329 169.592 584.249 169.845 584.089 170.032C583.929 170.205 583.696 170.292 583.389 170.292C583.096 170.292 582.863 170.205 582.689 170.032C582.516 169.845 582.429 169.592 582.429 169.272V167.972H582.609C582.503 168.465 582.303 168.892 582.009 169.252C581.729 169.598 581.376 169.865 580.949 170.052C580.523 170.238 580.036 170.332 579.489 170.332ZM591.411 170.332C590.411 170.332 589.545 170.125 588.811 169.712C588.091 169.285 587.531 168.692 587.131 167.932C586.731 167.158 586.531 166.252 586.531 165.212C586.531 164.438 586.645 163.745 586.871 163.132C587.098 162.505 587.418 161.978 587.831 161.552C588.258 161.125 588.771 160.798 589.371 160.572C589.985 160.332 590.665 160.212 591.411 160.212C591.878 160.212 592.365 160.285 592.871 160.432C593.391 160.565 593.871 160.792 594.311 161.112C594.485 161.218 594.591 161.352 594.631 161.512C594.685 161.658 594.691 161.812 594.651 161.972C594.625 162.132 594.551 162.272 594.431 162.392C594.325 162.498 594.191 162.565 594.031 162.592C593.871 162.605 593.698 162.558 593.511 162.452C593.191 162.225 592.865 162.065 592.531 161.972C592.198 161.865 591.878 161.812 591.571 161.812C591.091 161.812 590.665 161.892 590.291 162.052C589.931 162.198 589.625 162.418 589.371 162.712C589.118 162.992 588.925 163.345 588.791 163.772C588.671 164.198 588.611 164.685 588.611 165.232C588.611 166.325 588.865 167.185 589.371 167.812C589.891 168.425 590.625 168.732 591.571 168.732C591.878 168.732 592.198 168.685 592.531 168.592C592.865 168.498 593.191 168.338 593.511 168.112C593.698 168.005 593.871 167.965 594.031 167.992C594.191 168.018 594.318 168.092 594.411 168.212C594.518 168.318 594.585 168.452 594.611 168.612C594.651 168.758 594.645 168.912 594.591 169.072C594.538 169.232 594.425 169.365 594.251 169.472C593.825 169.778 593.358 169.998 592.851 170.132C592.358 170.265 591.878 170.332 591.411 170.332ZM600.627 170.332C599.827 170.332 599.154 170.192 598.607 169.912C598.06 169.632 597.654 169.218 597.387 168.672C597.12 168.125 596.987 167.458 596.987 166.672V161.952H595.787C595.52 161.952 595.314 161.885 595.167 161.752C595.02 161.605 594.947 161.412 594.947 161.172C594.947 160.918 595.02 160.725 595.167 160.592C595.314 160.458 595.52 160.392 595.787 160.392H596.987V158.332C596.987 157.998 597.074 157.745 597.247 157.572C597.434 157.398 597.687 157.312 598.007 157.312C598.327 157.312 598.574 157.398 598.747 157.572C598.92 157.745 599.007 157.998 599.007 158.332V160.392H601.347C601.614 160.392 601.82 160.458 601.967 160.592C602.114 160.725 602.187 160.918 602.187 161.172C602.187 161.412 602.114 161.605 601.967 161.752C601.82 161.885 601.614 161.952 601.347 161.952H599.007V166.512C599.007 167.218 599.154 167.752 599.447 168.112C599.754 168.472 600.247 168.652 600.927 168.652C601.167 168.652 601.374 168.632 601.547 168.592C601.734 168.538 601.887 168.505 602.007 168.492C602.154 168.492 602.274 168.545 602.367 168.652C602.46 168.745 602.507 168.932 602.507 169.212C602.507 169.412 602.467 169.598 602.387 169.772C602.32 169.945 602.194 170.058 602.007 170.112C601.847 170.165 601.627 170.212 601.347 170.252C601.08 170.305 600.84 170.332 600.627 170.332ZM607.192 170.332C606.605 170.332 605.998 170.265 605.372 170.132C604.758 169.998 604.192 169.772 603.672 169.452C603.498 169.332 603.378 169.198 603.312 169.052C603.245 168.905 603.218 168.758 603.232 168.612C603.258 168.452 603.318 168.318 603.412 168.212C603.518 168.092 603.645 168.018 603.792 167.992C603.952 167.965 604.118 167.998 604.292 168.092C604.812 168.385 605.312 168.592 605.792 168.712C606.272 168.818 606.745 168.872 607.212 168.872C607.918 168.872 608.452 168.745 608.812 168.492C609.172 168.238 609.352 167.898 609.352 167.472C609.352 167.125 609.232 166.858 608.992 166.672C608.752 166.472 608.392 166.318 607.912 166.212L606.012 165.832C605.185 165.658 604.558 165.352 604.132 164.912C603.705 164.472 603.492 163.912 603.492 163.232C603.492 162.618 603.658 162.085 603.992 161.632C604.325 161.178 604.792 160.832 605.392 160.592C605.992 160.338 606.685 160.212 607.472 160.212C608.058 160.212 608.612 160.285 609.132 160.432C609.652 160.578 610.132 160.798 610.572 161.092C610.745 161.185 610.858 161.312 610.912 161.472C610.965 161.618 610.972 161.765 610.932 161.912C610.905 162.058 610.838 162.192 610.732 162.312C610.625 162.418 610.492 162.485 610.332 162.512C610.185 162.525 610.018 162.485 609.832 162.392C609.432 162.138 609.032 161.958 608.632 161.852C608.245 161.745 607.858 161.692 607.472 161.692C606.765 161.692 606.232 161.825 605.872 162.092C605.525 162.345 605.352 162.692 605.352 163.132C605.352 163.465 605.458 163.738 605.672 163.952C605.885 164.165 606.218 164.318 606.672 164.412L608.572 164.792C609.438 164.965 610.092 165.258 610.532 165.672C610.985 166.085 611.212 166.645 611.212 167.352C611.212 168.272 610.845 168.998 610.112 169.532C609.378 170.065 608.405 170.332 607.192 170.332Z" fill="#00BFFF"/>
<path d="M685.62 170.292C685.287 170.292 685.027 170.198 684.84 170.012C684.667 169.825 684.58 169.565 684.58 169.232V157.792H680.34C680.06 157.792 679.84 157.718 679.68 157.572C679.52 157.412 679.44 157.192 679.44 156.912C679.44 156.632 679.52 156.418 679.68 156.272C679.84 156.125 680.06 156.052 680.34 156.052H690.88C691.173 156.052 691.4 156.125 691.56 156.272C691.72 156.418 691.8 156.632 691.8 156.912C691.8 157.192 691.72 157.412 691.56 157.572C691.4 157.718 691.173 157.792 690.88 157.792H686.64V169.232C686.64 169.565 686.553 169.825 686.38 170.012C686.22 170.198 685.967 170.292 685.62 170.292ZM696.184 170.332C695.117 170.332 694.197 170.132 693.424 169.732C692.664 169.318 692.07 168.738 691.644 167.992C691.23 167.232 691.024 166.332 691.024 165.292C691.024 164.278 691.23 163.392 691.644 162.632C692.057 161.872 692.624 161.278 693.344 160.852C694.064 160.425 694.884 160.212 695.804 160.212C696.484 160.212 697.09 160.325 697.624 160.552C698.157 160.765 698.61 161.085 698.984 161.512C699.37 161.925 699.657 162.432 699.844 163.032C700.044 163.632 700.144 164.305 700.144 165.052C700.144 165.278 700.077 165.452 699.944 165.572C699.81 165.678 699.61 165.732 699.344 165.732H692.624V164.492H698.784L698.444 164.772C698.444 164.105 698.344 163.538 698.144 163.072C697.957 162.605 697.67 162.252 697.284 162.012C696.91 161.758 696.444 161.632 695.884 161.632C695.257 161.632 694.724 161.778 694.284 162.072C693.857 162.365 693.53 162.772 693.304 163.292C693.077 163.812 692.964 164.418 692.964 165.112V165.232C692.964 166.405 693.237 167.292 693.784 167.892C694.344 168.478 695.15 168.772 696.204 168.772C696.604 168.772 697.024 168.718 697.464 168.612C697.917 168.505 698.344 168.325 698.744 168.072C698.97 167.938 699.17 167.878 699.344 167.892C699.53 167.905 699.677 167.965 699.784 168.072C699.904 168.178 699.977 168.312 700.004 168.472C700.03 168.632 700.004 168.798 699.924 168.972C699.844 169.132 699.704 169.278 699.504 169.412C699.05 169.718 698.524 169.952 697.924 170.112C697.324 170.258 696.744 170.332 696.184 170.332ZM703.366 170.292C703.032 170.292 702.779 170.205 702.606 170.032C702.432 169.845 702.346 169.592 702.346 169.272V161.272C702.346 160.938 702.432 160.685 702.606 160.512C702.779 160.338 703.019 160.252 703.326 160.252C703.646 160.252 703.886 160.338 704.046 160.512C704.219 160.685 704.306 160.938 704.306 161.272V162.732H704.106C704.319 161.932 704.712 161.325 705.286 160.912C705.859 160.498 706.592 160.258 707.486 160.192C707.726 160.178 707.912 160.238 708.046 160.372C708.192 160.505 708.272 160.712 708.286 160.992C708.312 161.272 708.252 161.498 708.106 161.672C707.959 161.832 707.732 161.925 707.426 161.952L707.046 161.992C706.179 162.072 705.519 162.345 705.066 162.812C704.612 163.278 704.386 163.918 704.386 164.732V169.272C704.386 169.592 704.299 169.845 704.126 170.032C703.966 170.205 703.712 170.292 703.366 170.292ZM710.847 170.292C710.527 170.292 710.28 170.205 710.107 170.032C709.933 169.845 709.847 169.592 709.847 169.272V161.272C709.847 160.938 709.933 160.685 710.107 160.512C710.28 160.338 710.52 160.252 710.827 160.252C711.147 160.252 711.387 160.338 711.547 160.512C711.72 160.685 711.807 160.938 711.807 161.272V162.912L711.587 162.472C711.853 161.765 712.267 161.212 712.827 160.812C713.387 160.412 714.06 160.212 714.847 160.212C715.66 160.212 716.32 160.405 716.827 160.792C717.333 161.178 717.68 161.772 717.867 162.572H717.587C717.84 161.838 718.273 161.265 718.887 160.852C719.5 160.425 720.213 160.212 721.027 160.212C721.773 160.212 722.387 160.358 722.867 160.652C723.347 160.932 723.707 161.365 723.947 161.952C724.187 162.525 724.307 163.252 724.307 164.132V169.272C724.307 169.592 724.213 169.845 724.027 170.032C723.853 170.205 723.607 170.292 723.287 170.292C722.967 170.292 722.72 170.205 722.547 170.032C722.373 169.845 722.287 169.592 722.287 169.272V164.232C722.287 163.405 722.14 162.798 721.847 162.412C721.567 162.025 721.1 161.832 720.447 161.832C719.713 161.832 719.133 162.085 718.707 162.592C718.28 163.098 718.067 163.798 718.067 164.692V169.272C718.067 169.592 717.98 169.845 717.807 170.032C717.633 170.205 717.387 170.292 717.067 170.292C716.747 170.292 716.493 170.205 716.307 170.032C716.133 169.845 716.047 169.592 716.047 169.272V164.232C716.047 163.405 715.907 162.798 715.627 162.412C715.347 162.025 714.88 161.832 714.227 161.832C713.493 161.832 712.913 162.085 712.487 162.592C712.073 163.098 711.867 163.798 711.867 164.692V169.272C711.867 169.952 711.527 170.292 710.847 170.292ZM730.551 170.332C729.964 170.332 729.358 170.265 728.731 170.132C728.118 169.998 727.551 169.772 727.031 169.452C726.858 169.332 726.738 169.198 726.671 169.052C726.604 168.905 726.578 168.758 726.591 168.612C726.618 168.452 726.678 168.318 726.771 168.212C726.878 168.092 727.004 168.018 727.151 167.992C727.311 167.965 727.478 167.998 727.651 168.092C728.171 168.385 728.671 168.592 729.151 168.712C729.631 168.818 730.104 168.872 730.571 168.872C731.278 168.872 731.811 168.745 732.171 168.492C732.531 168.238 732.711 167.898 732.711 167.472C732.711 167.125 732.591 166.858 732.351 166.672C732.111 166.472 731.751 166.318 731.271 166.212L729.371 165.832C728.544 165.658 727.918 165.352 727.491 164.912C727.064 164.472 726.851 163.912 726.851 163.232C726.851 162.618 727.018 162.085 727.351 161.632C727.684 161.178 728.151 160.832 728.751 160.592C729.351 160.338 730.044 160.212 730.831 160.212C731.418 160.212 731.971 160.285 732.491 160.432C733.011 160.578 733.491 160.798 733.931 161.092C734.104 161.185 734.218 161.312 734.271 161.472C734.324 161.618 734.331 161.765 734.291 161.912C734.264 162.058 734.198 162.192 734.091 162.312C733.984 162.418 733.851 162.485 733.691 162.512C733.544 162.525 733.378 162.485 733.191 162.392C732.791 162.138 732.391 161.958 731.991 161.852C731.604 161.745 731.218 161.692 730.831 161.692C730.124 161.692 729.591 161.825 729.231 162.092C728.884 162.345 728.711 162.692 728.711 163.132C728.711 163.465 728.818 163.738 729.031 163.952C729.244 164.165 729.578 164.318 730.031 164.412L731.931 164.792C732.798 164.965 733.451 165.258 733.891 165.672C734.344 166.085 734.571 166.645 734.571 167.352C734.571 168.272 734.204 168.998 733.471 169.532C732.738 170.065 731.764 170.332 730.551 170.332Z" fill="#00BFFF"/>
<path d="M807.34 170.332C806.727 170.332 806.127 170.285 805.54 170.192C804.953 170.098 804.4 169.958 803.88 169.772C803.36 169.572 802.893 169.332 802.48 169.052C802.28 168.905 802.14 168.738 802.06 168.552C801.993 168.365 801.973 168.185 802 168.012C802.04 167.825 802.12 167.665 802.24 167.532C802.36 167.398 802.507 167.318 802.68 167.292C802.853 167.252 803.047 167.305 803.26 167.452C803.86 167.838 804.493 168.125 805.16 168.312C805.827 168.485 806.553 168.572 807.34 168.572C808.473 168.572 809.307 168.372 809.84 167.972C810.387 167.558 810.66 167.025 810.66 166.372C810.66 165.838 810.467 165.418 810.08 165.112C809.693 164.792 809.047 164.538 808.14 164.352L806 163.912C804.733 163.645 803.787 163.205 803.16 162.592C802.547 161.978 802.24 161.152 802.24 160.112C802.24 159.485 802.367 158.912 802.62 158.392C802.887 157.872 803.253 157.425 803.72 157.052C804.187 156.665 804.747 156.372 805.4 156.172C806.053 155.972 806.767 155.872 807.54 155.872C808.367 155.872 809.14 155.978 809.86 156.192C810.593 156.405 811.247 156.732 811.82 157.172C811.993 157.292 812.107 157.445 812.16 157.632C812.227 157.805 812.24 157.978 812.2 158.152C812.173 158.325 812.1 158.472 811.98 158.592C811.86 158.712 811.707 158.785 811.52 158.812C811.333 158.825 811.127 158.758 810.9 158.612C810.38 158.265 809.847 158.018 809.3 157.872C808.767 157.712 808.173 157.632 807.52 157.632C806.867 157.632 806.293 157.732 805.8 157.932C805.32 158.132 804.947 158.412 804.68 158.772C804.427 159.132 804.3 159.558 804.3 160.052C804.3 160.612 804.48 161.058 804.84 161.392C805.2 161.725 805.8 161.978 806.64 162.152L808.76 162.592C810.093 162.872 811.087 163.305 811.74 163.892C812.393 164.478 812.72 165.258 812.72 166.232C812.72 166.858 812.593 167.425 812.34 167.932C812.087 168.425 811.727 168.852 811.26 169.212C810.793 169.572 810.227 169.852 809.56 170.052C808.907 170.238 808.167 170.332 807.34 170.332ZM819.441 170.332C818.375 170.332 817.455 170.132 816.681 169.732C815.921 169.318 815.328 168.738 814.901 167.992C814.488 167.232 814.281 166.332 814.281 165.292C814.281 164.278 814.488 163.392 814.901 162.632C815.315 161.872 815.881 161.278 816.601 160.852C817.321 160.425 818.141 160.212 819.061 160.212C819.741 160.212 820.348 160.325 820.881 160.552C821.415 160.765 821.868 161.085 822.241 161.512C822.628 161.925 822.915 162.432 823.101 163.032C823.301 163.632 823.401 164.305 823.401 165.052C823.401 165.278 823.335 165.452 823.201 165.572C823.068 165.678 822.868 165.732 822.601 165.732H815.881V164.492H822.041L821.701 164.772C821.701 164.105 821.601 163.538 821.401 163.072C821.215 162.605 820.928 162.252 820.541 162.012C820.168 161.758 819.701 161.632 819.141 161.632C818.515 161.632 817.981 161.778 817.541 162.072C817.115 162.365 816.788 162.772 816.561 163.292C816.335 163.812 816.221 164.418 816.221 165.112V165.232C816.221 166.405 816.495 167.292 817.041 167.892C817.601 168.478 818.408 168.772 819.461 168.772C819.861 168.772 820.281 168.718 820.721 168.612C821.175 168.505 821.601 168.325 822.001 168.072C822.228 167.938 822.428 167.878 822.601 167.892C822.788 167.905 822.935 167.965 823.041 168.072C823.161 168.178 823.235 168.312 823.261 168.472C823.288 168.632 823.261 168.798 823.181 168.972C823.101 169.132 822.961 169.278 822.761 169.412C822.308 169.718 821.781 169.952 821.181 170.112C820.581 170.258 820.001 170.332 819.441 170.332ZM826.624 170.292C826.29 170.292 826.037 170.205 825.864 170.032C825.69 169.845 825.604 169.592 825.604 169.272V161.272C825.604 160.938 825.69 160.685 825.864 160.512C826.037 160.338 826.277 160.252 826.584 160.252C826.904 160.252 827.144 160.338 827.304 160.512C827.477 160.685 827.564 160.938 827.564 161.272V162.732H827.364C827.577 161.932 827.97 161.325 828.544 160.912C829.117 160.498 829.85 160.258 830.744 160.192C830.984 160.178 831.17 160.238 831.304 160.372C831.45 160.505 831.53 160.712 831.544 160.992C831.57 161.272 831.51 161.498 831.364 161.672C831.217 161.832 830.99 161.925 830.684 161.952L830.304 161.992C829.437 162.072 828.777 162.345 828.324 162.812C827.87 163.278 827.644 163.918 827.644 164.732V169.272C827.644 169.592 827.557 169.845 827.384 170.032C827.224 170.205 826.97 170.292 826.624 170.292ZM837.45 170.292C837.17 170.292 836.923 170.218 836.71 170.072C836.51 169.925 836.343 169.698 836.21 169.392L832.87 161.632C832.763 161.392 832.723 161.165 832.75 160.952C832.777 160.738 832.877 160.572 833.05 160.452C833.223 160.318 833.457 160.252 833.75 160.252C834.003 160.252 834.203 160.312 834.35 160.432C834.497 160.552 834.63 160.758 834.75 161.052L837.77 168.492H837.21L840.29 161.052C840.41 160.758 840.543 160.552 840.69 160.432C840.85 160.312 841.07 160.252 841.35 160.252C841.59 160.252 841.777 160.318 841.91 160.452C842.057 160.572 842.143 160.738 842.17 160.952C842.21 161.152 842.177 161.372 842.07 161.612L838.69 169.392C838.57 169.698 838.403 169.925 838.19 170.072C837.977 170.218 837.73 170.292 837.45 170.292ZM847.541 170.332C846.754 170.332 846.094 170.185 845.561 169.892C845.041 169.598 844.647 169.165 844.381 168.592C844.127 168.005 844.001 167.272 844.001 166.392V161.272C844.001 160.925 844.087 160.672 844.261 160.512C844.434 160.338 844.681 160.252 845.001 160.252C845.321 160.252 845.567 160.338 845.741 160.512C845.927 160.672 846.021 160.925 846.021 161.272V166.412C846.021 167.198 846.181 167.778 846.501 168.152C846.821 168.525 847.327 168.712 848.021 168.712C848.781 168.712 849.394 168.458 849.861 167.952C850.341 167.432 850.581 166.752 850.581 165.912V161.272C850.581 160.925 850.667 160.672 850.841 160.512C851.014 160.338 851.267 160.252 851.601 160.252C851.921 160.252 852.167 160.338 852.341 160.512C852.514 160.672 852.601 160.925 852.601 161.272V169.272C852.601 169.952 852.274 170.292 851.621 170.292C851.314 170.292 851.074 170.205 850.901 170.032C850.727 169.845 850.641 169.592 850.641 169.272V167.572L850.901 168.012C850.634 168.758 850.207 169.332 849.621 169.732C849.034 170.132 848.341 170.332 847.541 170.332ZM859.747 170.332C858.747 170.332 857.881 170.125 857.147 169.712C856.427 169.285 855.867 168.692 855.467 167.932C855.067 167.158 854.867 166.252 854.867 165.212C854.867 164.438 854.981 163.745 855.207 163.132C855.434 162.505 855.754 161.978 856.167 161.552C856.594 161.125 857.107 160.798 857.707 160.572C858.321 160.332 859.001 160.212 859.747 160.212C860.214 160.212 860.701 160.285 861.207 160.432C861.727 160.565 862.207 160.792 862.647 161.112C862.821 161.218 862.927 161.352 862.967 161.512C863.021 161.658 863.027 161.812 862.987 161.972C862.961 162.132 862.887 162.272 862.767 162.392C862.661 162.498 862.527 162.565 862.367 162.592C862.207 162.605 862.034 162.558 861.847 162.452C861.527 162.225 861.201 162.065 860.867 161.972C860.534 161.865 860.214 161.812 859.907 161.812C859.427 161.812 859.001 161.892 858.627 162.052C858.267 162.198 857.961 162.418 857.707 162.712C857.454 162.992 857.261 163.345 857.127 163.772C857.007 164.198 856.947 164.685 856.947 165.232C856.947 166.325 857.201 167.185 857.707 167.812C858.227 168.425 858.961 168.732 859.907 168.732C860.214 168.732 860.534 168.685 860.867 168.592C861.201 168.498 861.527 168.338 861.847 168.112C862.034 168.005 862.207 167.965 862.367 167.992C862.527 168.018 862.654 168.092 862.747 168.212C862.854 168.318 862.921 168.452 862.947 168.612C862.987 168.758 862.981 168.912 862.927 169.072C862.874 169.232 862.761 169.365 862.587 169.472C862.161 169.778 861.694 169.998 861.187 170.132C860.694 170.265 860.214 170.332 859.747 170.332ZM869.168 170.332C868.101 170.332 867.181 170.132 866.408 169.732C865.648 169.318 865.055 168.738 864.628 167.992C864.215 167.232 864.008 166.332 864.008 165.292C864.008 164.278 864.215 163.392 864.628 162.632C865.041 161.872 865.608 161.278 866.328 160.852C867.048 160.425 867.868 160.212 868.788 160.212C869.468 160.212 870.075 160.325 870.608 160.552C871.141 160.765 871.595 161.085 871.968 161.512C872.355 161.925 872.641 162.432 872.828 163.032C873.028 163.632 873.128 164.305 873.128 165.052C873.128 165.278 873.061 165.452 872.928 165.572C872.795 165.678 872.595 165.732 872.328 165.732H865.608V164.492H871.768L871.428 164.772C871.428 164.105 871.328 163.538 871.128 163.072C870.941 162.605 870.655 162.252 870.268 162.012C869.895 161.758 869.428 161.632 868.868 161.632C868.241 161.632 867.708 161.778 867.268 162.072C866.841 162.365 866.515 162.772 866.288 163.292C866.061 163.812 865.948 164.418 865.948 165.112V165.232C865.948 166.405 866.221 167.292 866.768 167.892C867.328 168.478 868.135 168.772 869.188 168.772C869.588 168.772 870.008 168.718 870.448 168.612C870.901 168.505 871.328 168.325 871.728 168.072C871.955 167.938 872.155 167.878 872.328 167.892C872.515 167.905 872.661 167.965 872.768 168.072C872.888 168.178 872.961 168.312 872.988 168.472C873.015 168.632 872.988 168.798 872.908 168.972C872.828 169.132 872.688 169.278 872.488 169.412C872.035 169.718 871.508 169.952 870.908 170.112C870.308 170.258 869.728 170.332 869.168 170.332ZM878.75 170.332C878.163 170.332 877.557 170.265 876.93 170.132C876.317 169.998 875.75 169.772 875.23 169.452C875.057 169.332 874.937 169.198 874.87 169.052C874.803 168.905 874.777 168.758 874.79 168.612C874.817 168.452 874.877 168.318 874.97 168.212C875.077 168.092 875.203 168.018 875.35 167.992C875.51 167.965 875.677 167.998 875.85 168.092C876.37 168.385 876.87 168.592 877.35 168.712C877.83 168.818 878.303 168.872 878.77 168.872C879.477 168.872 880.01 168.745 880.37 168.492C880.73 168.238 880.91 167.898 880.91 167.472C880.91 167.125 880.79 166.858 880.55 166.672C880.31 166.472 879.95 166.318 879.47 166.212L877.57 165.832C876.743 165.658 876.117 165.352 875.69 164.912C875.263 164.472 875.05 163.912 875.05 163.232C875.05 162.618 875.217 162.085 875.55 161.632C875.883 161.178 876.35 160.832 876.95 160.592C877.55 160.338 878.243 160.212 879.03 160.212C879.617 160.212 880.17 160.285 880.69 160.432C881.21 160.578 881.69 160.798 882.13 161.092C882.303 161.185 882.417 161.312 882.47 161.472C882.523 161.618 882.53 161.765 882.49 161.912C882.463 162.058 882.397 162.192 882.29 162.312C882.183 162.418 882.05 162.485 881.89 162.512C881.743 162.525 881.577 162.485 881.39 162.392C880.99 162.138 880.59 161.958 880.19 161.852C879.803 161.745 879.417 161.692 879.03 161.692C878.323 161.692 877.79 161.825 877.43 162.092C877.083 162.345 876.91 162.692 876.91 163.132C876.91 163.465 877.017 163.738 877.23 163.952C877.443 164.165 877.777 164.318 878.23 164.412L880.13 164.792C880.997 164.965 881.65 165.258 882.09 165.672C882.543 166.085 882.77 166.645 882.77 167.352C882.77 168.272 882.403 168.998 881.67 169.532C880.937 170.065 879.963 170.332 878.75 170.332Z" fill="#00BFFF"/>
</svg>
