<svg width="21" height="25" viewBox="0 0 21 25" fill="none" xmlns="http://www.w3.org/2000/svg">
<path id="Vector" d="M12.5782 24.514C10.0171 24.514 7.84933 24.031 6.07488 23.0651C4.34302 22.1353 2.93588 20.6994 2.0412 18.9491C1.12653 17.171 0.669197 15.0673 0.669197 12.6379C0.639609 10.9469 0.908051 9.26378 1.46222 7.66581C1.95983 6.25224 2.75631 4.96253 3.79736 3.88457C4.85236 2.81965 6.12812 1.99913 7.53469 1.48084C9.13792 0.898252 10.8342 0.613687 12.5397 0.641176C13.7877 0.643399 15.0311 0.792602 16.2441 1.0857C17.4891 1.38404 18.6748 1.89057 19.751 2.58392C20.0925 2.78669 20.354 3.10053 20.4919 3.47297C20.6123 3.81725 20.6294 4.18922 20.5413 4.54314C20.4599 4.89316 20.2898 5.21633 20.0473 5.48158C19.8093 5.74302 19.4905 5.91697 19.1418 5.97551C18.7215 6.02671 18.2964 5.92967 17.9399 5.70111C17.1471 5.23528 16.294 4.88071 15.4045 4.64741C14.4671 4.41832 13.5047 4.30769 12.5397 4.31813C10.9153 4.31813 9.54329 4.64193 8.42374 5.28951C7.30549 5.93551 6.42291 6.92191 5.90475 8.10484C5.34498 9.33416 5.06509 10.8379 5.06509 12.616C5.06509 15.3161 5.71268 17.3686 7.00785 18.7735C8.30301 20.1784 10.2238 20.8809 12.7702 20.8809C13.6661 20.8756 14.5593 20.7837 15.4374 20.6065C16.3326 20.4322 17.2132 20.1901 18.0717 19.8821L17.2485 21.759V14.7673H13.6264C13.1638 14.7978 12.708 14.6439 12.3586 14.3392C12.2083 14.1887 12.0911 14.0085 12.0145 13.81C11.938 13.6115 11.9038 13.3992 11.9141 13.1867C11.8995 12.9738 11.9317 12.7603 12.0085 12.5612C12.0853 12.362 12.2048 12.1822 12.3586 12.0343C12.7176 11.7499 13.1694 11.6091 13.6264 11.6391H19.0595C19.2906 11.6134 19.5245 11.64 19.744 11.717C19.9634 11.7939 20.1627 11.9193 20.3272 12.0837C20.4916 12.2481 20.6169 12.4475 20.6939 12.6669C20.7708 12.8863 20.7974 13.1203 20.7717 13.3514V21.3529C20.7875 21.7759 20.693 22.1958 20.4973 22.5712C20.2933 22.9145 19.9715 23.172 19.5918 23.2956C18.5092 23.6778 17.3969 23.9696 16.2661 24.1682C15.0499 24.3955 13.8154 24.5112 12.5782 24.514Z" fill="#00BFFF"/>
</svg>
