<svg width="22" height="25" viewBox="0 0 22 25" fill="none" xmlns="http://www.w3.org/2000/svg">
<path id="Vector" d="M2.55268 24.1845C2.24993 24.2208 1.9429 24.1878 1.65475 24.0881C1.36659 23.9883 1.10484 23.8245 0.889235 23.6089C0.673625 23.3933 0.509782 23.1315 0.410065 22.8434C0.310348 22.5552 0.277356 22.2482 0.313579 21.9454V3.2094C0.277356 2.90664 0.310348 2.59961 0.410065 2.31145C0.509782 2.0233 0.673625 1.76156 0.889235 1.54595C1.10484 1.33034 1.36659 1.16649 1.65475 1.06677C1.9429 0.967055 2.24993 0.934064 2.55268 0.970287H8.94071C12.8262 0.970287 15.8281 1.96912 17.9465 3.96675C20.0649 5.96438 21.1241 8.82912 21.1241 12.561C21.154 14.2478 20.8807 15.9263 20.3173 17.5166C19.8178 18.8959 19.0064 20.1411 17.9465 21.1551C16.8513 22.1743 15.5482 22.9438 14.1269 23.4107C12.4526 23.9528 10.7003 24.2143 8.94071 24.1845H2.55268ZM4.52837 20.6942H8.67729C9.87715 20.7182 11.0729 20.5458 12.2171 20.1838C13.1572 19.8792 14.0138 19.3608 14.7196 18.6691C15.415 17.9562 15.9288 17.0867 16.2178 16.1336C16.5662 14.9773 16.7328 13.7739 16.7117 12.5664C16.7117 9.84439 16.0422 7.81382 14.7031 6.47475C13.3641 5.13568 11.3518 4.46616 8.66632 4.46616H4.5366L4.52837 20.6942Z" fill="#00BFFF"/>
</svg>
