<svg width="19" height="25" viewBox="0 0 19 25" fill="none" xmlns="http://www.w3.org/2000/svg">
<path id="Vector" d="M2.96054 24.4479C2.67406 24.4663 2.38692 24.4245 2.11755 24.3252C1.84819 24.226 1.60256 24.0715 1.39646 23.8717C1.01185 23.4315 0.814853 22.8583 0.847656 22.2747V3.1106C0.825232 2.82103 0.862366 2.52994 0.956753 2.25527C1.05114 1.98061 1.20078 1.7282 1.39646 1.51359C1.61066 1.32235 1.86061 1.17539 2.13188 1.0812C2.40315 0.987011 2.69037 0.947448 2.977 0.964785H10.9127C13.4591 0.964785 15.4238 1.60505 16.8068 2.88559C18.1897 4.16612 18.8867 5.9424 18.8977 8.21443C18.8977 10.4974 18.2062 12.281 16.8232 13.5652C15.4402 14.8494 13.4755 15.4897 10.9291 15.486H5.07068V22.2692C5.10522 22.8492 4.91674 23.4206 4.54382 23.8662C4.33639 24.0701 4.0879 24.2274 3.81489 24.3277C3.54188 24.428 3.25063 24.469 2.96054 24.4479ZM5.07068 12.1658H10.2843C11.777 12.1658 12.9075 11.831 13.6759 11.1615C14.4442 10.4919 14.8283 9.5096 14.8283 8.21443C14.8283 6.91926 14.4442 5.9424 13.6759 5.28384C12.9075 4.62528 11.777 4.29599 10.2843 4.29599H5.07068V12.1658Z" fill="#00BFFF"/>
</svg>
